<svg width="159" height="36" viewBox="0 0 159 36" fill="none" xmlns="http://www.w3.org/2000/svg">
<g clip-path="url(#clip0_4_86)">
<path d="M32.1948 29.0277L42.3049 11.2087L42.948 10.0757L41.6331 10.1221C35.4281 10.3409 29.7622 13.8606 26.5766 19.4748L23.7356 24.4822C23.7356 24.4822 28.2241 28.882 32.1948 29.0277Z" fill="url(#paint0_linear_4_86)"/>
<path d="M41.7119 10.5057L42.9912 10.082L42.9994 10.0671L41.6844 10.1135C35.4794 10.3323 29.8135 13.852 26.6281 19.4666L23.7866 24.474C23.7866 24.474 23.7659 25.8399 25.7179 27.1591C25.7179 27.1591 30.1333 12.024 41.7119 10.5057Z" fill="url(#paint1_linear_4_86)"/>
<path d="M39.2702 9.73973L39.9385 9.63032L40.5835 9.44591L40.5923 9.43167L39.2803 9.42995C33.0898 9.42185 27.3154 12.6638 23.936 18.0446L20.9217 22.8439C20.9217 22.8439 20.851 24.1799 22.748 25.5409C22.748 25.5409 27.6775 10.8111 39.2702 9.73973Z" fill="url(#paint2_linear_4_86)"/>
<path d="M40.487 28.8675L40.3367 28.9696L40.1635 29.0674C40.0482 29.1356 39.9353 29.1895 39.8206 29.2495C39.5914 29.3708 39.3643 29.4806 39.1386 29.5842C38.6834 29.8078 38.2399 29.9807 37.791 30.1755C37.3484 30.3435 36.9042 30.5174 36.4639 30.6723L35.1509 31.099L33.8494 31.4562C33.415 31.5683 32.9852 31.6691 32.5461 31.7543C32.3311 31.798 31.3143 31.8992 28.6136 31.3687C26.1451 30.7258 23.794 29.3639 21.9091 27.5082C20.0263 25.6494 17.9573 21.422 17.9573 21.422C17.426 20.3247 16.9653 19.2031 16.5398 18.0702L16.3864 17.6428L16.2891 17.3942C16.2247 17.24 16.1755 17.0816 16.1147 16.9275L15.7498 16.0066C15.5048 15.3932 15.2433 14.7835 14.9675 14.1524C14.8212 13.8439 14.6895 13.5124 14.5246 13.1984C14.3763 12.8684 14.2087 12.5434 14.0374 12.2029C13.3388 10.8543 12.4629 9.39054 11.1186 7.77631C10.9143 7.55846 5.39136 1.18237 5.39136 1.18237C6.59687 1.33861 7.80047 1.51031 9.00293 1.68855L10.8083 1.95143L11.7113 2.08295C12.0192 2.1381 12.3497 2.21263 12.6493 2.29182C15.0979 2.91771 17.4324 4.05524 19.4257 5.639C21.4074 7.23606 23.0573 9.23576 24.2708 11.4691C24.5717 12.0287 24.8545 12.5984 25.101 13.1842C25.3508 13.7598 25.5671 14.3878 25.7492 14.949L26.8927 18.3939L26.9062 18.4346L26.9142 18.4655C27.2645 19.868 27.8819 21.2047 28.7401 22.368C29.6019 23.5255 30.6782 24.5315 31.9391 25.2556L32.4188 25.5135L32.9134 25.743L33.0307 25.7958C33.0541 25.8 33.0462 25.8006 33.0935 25.8139L33.3665 25.89L33.9306 26.0411C34.6875 26.2371 35.4447 26.445 36.2012 26.6546L38.4737 27.2779L39.6096 27.5944L41.5678 28.1284L40.487 28.8675Z" fill="url(#paint3_linear_4_86)"/>
<path d="M39.6103 27.5957L38.4745 27.279L36.202 26.6558C35.4456 26.4459 34.688 26.2383 33.9314 26.0423L33.3672 25.8911L33.0943 25.8151C33.047 25.8018 33.0546 25.8013 33.0315 25.797L32.9142 25.7441L32.4195 25.5147L31.9399 25.2569C30.6789 24.5327 29.6027 23.5267 28.7409 22.3691C27.8827 21.2059 27.2651 19.8695 26.9149 18.4667L26.9069 18.4358L26.8934 18.3951L25.7499 14.9502C25.568 14.3887 25.3512 13.7606 25.1018 13.1855C24.8557 12.5997 24.5728 12.0297 24.2715 11.4703C23.058 9.23698 21.4084 7.23735 19.4264 5.64023C17.4333 4.05616 15.0987 2.91894 12.65 2.29304C12.3505 2.21384 12.02 2.13932 11.712 2.08418L10.809 1.95266L9.00367 1.68978C7.80091 1.51146 6.59759 1.33983 5.39209 1.18359C5.39209 1.18359 5.41402 1.20868 5.45465 1.25583C5.75878 1.31497 6.07244 1.38503 6.36318 1.46158C9.197 2.18606 11.8988 3.50244 14.2055 5.3356C16.4991 7.18363 18.4083 9.49799 19.8127 12.0827C20.1609 12.7302 20.4884 13.3898 20.7732 14.0677C21.0624 14.7335 21.313 15.4605 21.5235 16.1102L22.8471 20.097L22.8627 20.1441L22.8718 20.1798C23.2772 21.803 23.9919 23.3499 24.985 24.6961C25.982 26.0358 27.2281 27.2002 28.6872 28.0383L29.2423 28.337L29.8149 28.6025L29.9505 28.6637C29.9775 28.6689 29.9683 28.6694 30.0233 28.6847L30.3394 28.7729L30.992 28.9475C31.8677 29.1745 32.7443 29.4149 33.62 29.6579L36.2501 30.379L36.8264 30.5397C37.1474 30.421 37.4693 30.2981 37.7909 30.1759C38.2399 29.9811 38.6833 29.8081 39.1385 29.5846C39.3642 29.481 39.5914 29.3711 39.8205 29.2498C39.9353 29.1899 40.0486 29.1361 40.1636 29.0677L40.3367 28.9701L40.487 28.8678L41.5678 28.1301L39.6103 27.5957Z" fill="url(#paint4_linear_4_86)"/>
<path d="M47.2976 30V13.2H57.8557V16.128H50.2318V19.536H56.2804V22.464H50.2318V27.072H57.8557V30H47.2976ZM67.5066 26.388L70.1522 27.816C69.599 28.568 68.9056 29.172 68.0718 29.628C67.2381 30.084 66.3282 30.312 65.3421 30.312C64.2358 30.312 63.2257 30.028 62.3117 29.46C61.4059 28.892 60.6803 28.132 60.1352 27.18C59.5981 26.22 59.3295 25.16 59.3295 24C59.3295 23.12 59.4858 22.3 59.7985 21.54C60.1111 20.772 60.54 20.1 61.0852 19.524C61.6383 18.94 62.2797 18.484 63.0092 18.156C63.7387 17.828 64.5164 17.664 65.3421 17.664C66.3282 17.664 67.2381 17.892 68.0718 18.348C68.9056 18.804 69.599 19.416 70.1522 20.184L67.5066 21.6C67.2261 21.28 66.8934 21.032 66.5085 20.856C66.1318 20.68 65.7429 20.592 65.3421 20.592C64.7649 20.592 64.2438 20.752 63.7788 21.072C63.3138 21.384 62.9451 21.8 62.6725 22.32C62.3999 22.832 62.2636 23.392 62.2636 24C62.2636 24.6 62.3999 25.16 62.6725 25.68C62.9451 26.192 63.3138 26.604 63.7788 26.916C64.2438 27.228 64.7649 27.384 65.3421 27.384C65.759 27.384 66.1558 27.296 66.5326 27.12C66.9094 26.936 67.2341 26.692 67.5066 26.388ZM77.2264 30.312C76.12 30.312 75.1099 30.028 74.196 29.46C73.2901 28.892 72.5646 28.132 72.0194 27.18C71.4823 26.22 71.2137 25.16 71.2137 24C71.2137 23.12 71.3701 22.3 71.6827 21.54C71.9954 20.772 72.4243 20.1 72.9694 19.524C73.5226 18.94 74.1639 18.484 74.8935 18.156C75.623 17.828 76.4006 17.664 77.2264 17.664C78.3327 17.664 79.3388 17.948 80.2447 18.516C81.1586 19.084 81.8841 19.848 82.4212 20.808C82.9664 21.768 83.239 22.832 83.239 24C83.239 24.872 83.0826 25.688 82.77 26.448C82.4573 27.208 82.0244 27.88 81.4712 28.464C80.9261 29.04 80.2888 29.492 79.5592 29.82C78.8377 30.148 78.0601 30.312 77.2264 30.312ZM77.2264 27.384C77.8116 27.384 78.3367 27.228 78.8017 26.916C79.2666 26.604 79.6314 26.192 79.8959 25.68C80.1685 25.168 80.3048 24.608 80.3048 24C80.3048 23.376 80.1645 22.808 79.8839 22.296C79.6114 21.776 79.2386 21.364 78.7656 21.06C78.3006 20.748 77.7875 20.592 77.2264 20.592C76.6491 20.592 76.128 20.748 75.6631 21.06C75.1981 21.372 74.8293 21.788 74.5568 22.308C74.2842 22.828 74.1479 23.392 74.1479 24C74.1479 24.632 74.2882 25.204 74.5688 25.716C74.8494 26.228 75.2222 26.636 75.6871 26.94C76.1601 27.236 76.6732 27.384 77.2264 27.384ZM84.9234 30V13.2H88.0981L95.205 24.708V13.2H98.1391V30H94.9765L87.8576 18.492V30H84.9234ZM108.463 18H111.577L104.999 36H101.885L104.061 30L99.7323 18H102.943L105.528 25.992L108.463 18ZM118.07 30.312C116.964 30.312 115.953 30.028 115.039 29.46C114.134 28.892 113.408 28.132 112.863 27.18C112.326 26.22 112.057 25.16 112.057 24C112.057 23.12 112.214 22.3 112.526 21.54C112.839 20.772 113.268 20.1 113.813 19.524C114.366 18.94 115.007 18.484 115.737 18.156C116.466 17.828 117.244 17.664 118.07 17.664C119.176 17.664 120.182 17.948 121.088 18.516C122.002 19.084 122.728 19.848 123.265 20.808C123.81 21.768 124.082 22.832 124.082 24C124.082 24.872 123.926 25.688 123.613 26.448C123.301 27.208 122.868 27.88 122.315 28.464C121.77 29.04 121.132 29.492 120.403 29.82C119.681 30.148 118.904 30.312 118.07 30.312ZM118.07 27.384C118.655 27.384 119.18 27.228 119.645 26.916C120.11 26.604 120.475 26.192 120.739 25.68C121.012 25.168 121.148 24.608 121.148 24C121.148 23.376 121.008 22.808 120.727 22.296C120.455 21.776 120.082 21.364 119.609 21.06C119.144 20.748 118.631 20.592 118.07 20.592C117.493 20.592 116.972 20.748 116.507 21.06C116.042 21.372 115.673 21.788 115.4 22.308C115.128 22.828 114.991 23.392 114.991 24C114.991 24.632 115.132 25.204 115.412 25.716C115.693 26.228 116.066 26.636 116.531 26.94C117.004 27.236 117.517 27.384 118.07 27.384ZM136.97 22.416V30H134.036V23.184C134.036 22.712 133.919 22.284 133.687 21.9C133.454 21.508 133.142 21.2 132.749 20.976C132.364 20.744 131.935 20.628 131.462 20.628C130.989 20.628 130.556 20.744 130.164 20.976C129.779 21.2 129.47 21.508 129.238 21.9C129.013 22.284 128.901 22.712 128.901 23.184V30H125.967L125.955 18H128.889L128.901 19.068C129.31 18.636 129.799 18.296 130.368 18.048C130.937 17.792 131.55 17.664 132.208 17.664C133.082 17.664 133.879 17.88 134.601 18.312C135.322 18.736 135.896 19.308 136.321 20.028C136.753 20.74 136.97 21.536 136.97 22.416ZM148.053 18H150.987V30.228C150.987 31.092 150.811 31.876 150.458 32.58C150.105 33.292 149.624 33.9 149.015 34.404C148.406 34.916 147.708 35.308 146.923 35.58C146.137 35.86 145.311 36 144.446 36C143.604 36 142.794 35.828 142.016 35.484C141.239 35.14 140.549 34.668 139.948 34.068C139.355 33.476 138.902 32.8 138.589 32.04L141.271 30.828C141.431 31.268 141.672 31.652 141.992 31.98C142.321 32.316 142.698 32.576 143.123 32.76C143.548 32.952 143.989 33.048 144.446 33.048C144.911 33.048 145.355 32.984 145.78 32.856C146.213 32.728 146.602 32.54 146.947 32.292C147.291 32.052 147.56 31.756 147.752 31.404C147.953 31.06 148.053 30.668 148.053 30.228V28.536C147.676 29.064 147.203 29.492 146.634 29.82C146.065 30.148 145.408 30.312 144.662 30.312C143.796 30.312 142.986 30.148 142.233 29.82C141.479 29.492 140.814 29.04 140.237 28.464C139.668 27.88 139.219 27.208 138.89 26.448C138.569 25.688 138.409 24.872 138.409 24C138.409 23.128 138.569 22.312 138.89 21.552C139.219 20.792 139.668 20.124 140.237 19.548C140.814 18.964 141.479 18.508 142.233 18.18C142.986 17.852 143.796 17.688 144.662 17.688C145.408 17.688 146.065 17.852 146.634 18.18C147.203 18.5 147.676 18.924 148.053 19.452V18ZM144.698 27.492C145.315 27.492 145.861 27.336 146.333 27.024C146.815 26.704 147.191 26.28 147.464 25.752C147.736 25.216 147.873 24.632 147.873 24C147.873 23.36 147.732 22.776 147.452 22.248C147.179 21.72 146.802 21.296 146.321 20.976C145.848 20.656 145.307 20.496 144.698 20.496C144.097 20.496 143.548 20.656 143.051 20.976C142.554 21.288 142.157 21.708 141.86 22.236C141.563 22.764 141.415 23.352 141.415 24C141.415 24.648 141.563 25.236 141.86 25.764C142.157 26.292 142.554 26.712 143.051 27.024C143.548 27.336 144.097 27.492 144.698 27.492ZM154.902 30.312C154.485 30.312 154.129 30.168 153.832 29.88C153.543 29.584 153.399 29.224 153.399 28.8C153.399 28.392 153.543 28.04 153.832 27.744C154.129 27.448 154.485 27.3 154.902 27.3C155.319 27.3 155.676 27.448 155.972 27.744C156.269 28.04 156.417 28.392 156.417 28.8C156.417 29.224 156.269 29.584 155.972 29.88C155.676 30.168 155.319 30.312 154.902 30.312Z" fill="url(#paint5_linear_4_86)"/>
</g>
<defs>
<linearGradient id="paint0_linear_4_86" x1="43.2764" y1="19.3502" x2="25.8431" y2="21.4584" gradientUnits="userSpaceOnUse">
<stop stop-color="#559C43"/>
<stop offset="0.610988" stop-color="#2D701C"/>
<stop offset="1" stop-color="#2F5374"/>
</linearGradient>
<linearGradient id="paint1_linear_4_86" x1="38.8823" y1="12.147" x2="15.607" y2="29.8631" gradientUnits="userSpaceOnUse">
<stop stop-color="#FFCB77"/>
<stop offset="0.530856" stop-color="#9C6E24"/>
<stop offset="1" stop-color="#503508"/>
</linearGradient>
<linearGradient id="paint2_linear_4_86" x1="36.7584" y1="12.0359" x2="12.839" y2="28.2193" gradientUnits="userSpaceOnUse">
<stop stop-color="#FFCB77"/>
<stop offset="0.6137" stop-color="#9C6E24"/>
<stop offset="1" stop-color="#559C43"/>
</linearGradient>
<linearGradient id="paint3_linear_4_86" x1="43.3016" y1="21.9611" x2="-4.57553" y2="20.889" gradientUnits="userSpaceOnUse">
<stop stop-color="#2D701C"/>
<stop offset="0.280791" stop-color="#559C43"/>
<stop offset="0.715793" stop-color="#FFCB77"/>
</linearGradient>
<linearGradient id="paint4_linear_4_86" x1="43.5928" y1="20.6819" x2="2.85965" y2="11.4184" gradientUnits="userSpaceOnUse">
<stop offset="0.2055" stop-color="white" stop-opacity="0"/>
<stop offset="1" stop-color="#2D701C"/>
</linearGradient>
<linearGradient id="paint5_linear_4_86" x1="48.547" y1="30" x2="157.908" y2="21.1485" gradientUnits="userSpaceOnUse">
<stop offset="0.2351" stop-color="#9C6E24"/>
<stop offset="0.757472" stop-color="#2D701C"/>
</linearGradient>
<clipPath id="clip0_4_86">
<rect width="159" height="36" fill="white"/>
</clipPath>
</defs>
</svg>
