<svg width="202" height="202" viewBox="0 0 202 202" fill="none" xmlns="http://www.w3.org/2000/svg">
<mask id="mask0_38_1474" style="mask-type:alpha" maskUnits="userSpaceOnUse" x="0" y="0" width="202" height="202">
<circle cx="101" cy="101" r="101" fill="#FFEDD1"/>
</mask>
<g mask="url(#mask0_38_1474)">
<circle cx="101" cy="101" r="101" fill="#FFEDD1"/>
<path d="M20.8442 98.201C20.8442 98.201 -31.1711 112.106 -18.2088 149.02C-5.24482 185.934 77.4387 186.576 73.1722 148.093C69.4924 114.906 41.7464 101.579 41.7464 101.579C41.7464 101.579 54.5443 92.1147 50.5712 91.6054C46.5964 91.096 39.7381 94.4938 39.7381 94.4938C39.7381 94.4938 47.8988 81.2026 43.9095 82.6307C39.9202 84.0588 30.9568 95.7784 30.9568 95.7784C30.9568 95.7784 31.1809 81.5911 27.759 84.0926C24.3371 86.5958 25.9279 95.4157 25.9279 95.4157C25.9279 95.4157 25.3799 90.8204 21.9096 91.6118C18.4394 92.4032 20.8442 98.201 20.8442 98.201Z" fill="#C1907A"/>
<path d="M10.4703 103.156C10.4703 103.156 59.6036 125.176 40.9193 159.552C22.235 193.926 -56.4673 184.095 -49.5736 145.995C-43.8983 114.625 -10.7027 103.159 -10.7027 103.159C-10.7027 103.159 -21.8276 91.7746 -17.8238 91.9051C-13.8184 92.0357 -7.58866 96.4843 -7.58866 96.4843C-7.58866 96.4843 -13.5266 82.0617 -9.81461 84.1071C-6.10418 86.1525 0.875038 99.1519 0.875038 99.1519C0.875038 99.1519 2.91723 85.1097 5.89589 88.1254C8.87455 91.1411 5.89749 99.5968 5.89749 99.5968C5.89749 99.5968 7.17084 95.1465 10.4703 96.4811C13.7697 97.8157 10.4703 103.156 10.4703 103.156Z" fill="#DFBCAC"/>
<path d="M-3.74953 110.441C-5.20984 110.441 -6.67498 110.164 -8.09339 109.498C-10.1404 108.536 -11.093 107.666 -11.0044 106.836C-10.9641 106.447 -10.6772 105.928 -9.54727 105.664C-7.34713 105.151 -2.03776 105.873 0.176892 108.96C5.55395 107.274 10.1235 102.93 10.1912 102.866C10.3524 102.712 10.607 102.716 10.7618 102.877C10.9165 103.036 10.9117 103.291 10.7505 103.447C10.3975 103.786 3.39732 110.441 -3.74953 110.441ZM-7.95962 106.312C-8.49797 106.312 -8.97669 106.358 -9.36353 106.449C-9.92283 106.579 -10.1872 106.779 -10.2017 106.921C-10.2275 107.166 -9.74067 107.833 -7.74845 108.77C-5.46772 109.843 -3.00487 109.801 -0.654821 109.2C-2.30856 107.169 -5.66438 106.312 -7.95962 106.312Z" fill="white"/>
<path d="M35.7903 107.169C27.2492 107.169 20.8148 98.8295 20.523 98.4443C20.3877 98.267 20.4231 98.014 20.6004 97.8802C20.7761 97.7464 21.0292 97.7802 21.1662 97.9575C21.2049 98.0091 23.2357 100.638 26.4513 102.941C26.4916 102.877 26.5497 102.824 26.6222 102.79C33.0486 99.7644 39.1316 100.943 41.2173 102.691C41.9604 103.315 42.2682 104.036 42.0829 104.722C41.8798 105.47 41.0013 106.471 37.9679 106.985C37.228 107.11 36.5027 107.169 35.7903 107.169ZM27.1589 103.428C30.0554 105.348 33.7803 106.879 37.8325 106.189C39.8134 105.854 41.1109 105.225 41.3043 104.511C41.4381 104.018 40.9836 103.546 40.6999 103.307C38.7931 101.71 33.1936 100.664 27.1589 103.428Z" fill="white"/>
<path d="M43.0306 177.646C43.0306 177.646 27.8375 168.306 26.9268 168.915C26.0162 169.523 5.48307 184.534 1.3165 184.381C-2.85008 184.227 -4.01221 180.947 -4.01221 180.947C-4.01221 180.947 21.9012 139.57 23.5388 138.668C25.1764 137.765 50.1452 152.471 50.1452 152.471L43.0306 177.646Z" fill="#E5715A"/>
<path d="M-3.03842 182.464L26.7852 139.523C23.4197 137.431 19.0227 138.387 16.8419 141.672L-4.96779 174.529C-6.71179 177.158 -5.92037 180.71 -3.22539 182.35L-3.03842 182.464Z" fill="#E5715A"/>
<path d="M-0.251409 184.556C-0.415815 184.556 -0.568929 184.455 -0.628566 184.294C-0.705934 184.086 -0.599561 183.854 -0.390024 183.776C-0.356175 183.763 3.02867 182.487 5.90901 179.68C6.06858 179.526 6.32325 179.531 6.4796 179.689C6.63434 179.848 6.63111 180.103 6.47153 180.259C3.46386 183.189 0.035517 184.479 -0.109547 184.532C-0.156291 184.548 -0.204666 184.556 -0.251409 184.556Z" fill="black"/>
<path d="M-4.01519 181.349C-4.20861 181.349 -4.37947 181.208 -4.41171 181.01C-4.44717 180.793 -4.30048 180.586 -4.0845 180.549C-4.03453 180.538 -1.84728 180.04 1.58107 175.101C1.70841 174.919 1.95984 174.874 2.14198 175C2.32411 175.127 2.37086 175.378 2.24353 175.561C-1.45078 180.881 -3.84918 181.328 -3.95073 181.342C-3.97007 181.349 -3.99263 181.349 -4.01519 181.349Z" fill="black"/>
<path d="M26.69 184.605C26.69 184.605 11.497 175.264 10.5863 175.873C9.67558 176.481 -10.8575 191.492 -15.0241 191.339C-19.1907 191.186 -20.3528 187.906 -20.3528 187.906C-20.3528 187.906 5.56058 146.528 7.1982 145.626C8.83581 144.723 33.8046 159.429 33.8046 159.429L26.69 184.605Z" fill="#F48C6C"/>
<path d="M-19.379 189.421L10.4462 146.48C7.08075 144.388 2.68367 145.344 0.502871 148.629L-21.3068 181.486C-23.0524 184.115 -22.261 187.667 -19.5644 189.306L-19.379 189.421Z" fill="#F48C6C"/>
<path d="M212.466 163.296C212.466 163.296 210.899 171.475 209.958 171.878C209.018 172.281 187.795 174.88 186.184 177.611C184.572 180.34 187.496 183.563 192.818 186.25C198.139 188.937 212.914 190.146 215.063 191.355C217.211 192.564 222.719 192.833 224.062 191.355C225.404 189.877 229.152 166.665 228.555 165.511C227.957 164.355 212.466 163.296 212.466 163.296Z" fill="#DFBCAC"/>
<path d="M89.4999 24.0262C89.4999 24.0262 72.4726 12.9772 64.7761 36.7774C57.0796 60.5777 55.4678 67.025 55.4678 67.025L71.0735 68.0791L89.4999 24.0262Z" fill="#FCAD4F"/>
<path d="M93.6454 42.6154L89.7157 64.0689L73.4153 65.9499L82.4238 38.9018L93.6454 42.6154Z" fill="#FCAD4F"/>
<path d="M138.048 93.8893C138.048 93.8893 144.906 91.1766 148.502 91.6456C150.278 91.8778 156.274 94.007 156.015 95.6075C155.755 97.2081 148.947 97.0952 148.947 97.0952C148.947 97.0952 164.195 99.6016 165.705 101.829C167.523 104.51 162.946 104.023 162.946 104.023C162.946 104.023 166.864 106.55 165.418 107.553C163.974 108.557 160.707 108.573 160.707 108.573C160.707 108.573 165.623 110.415 161.448 112.179C157.274 113.942 132.602 112.786 129.636 103.971C128.172 99.6194 138.048 93.8893 138.048 93.8893Z" fill="#F48C6C"/>
<path d="M100.182 112.912C100.182 112.912 123.958 137.586 126.683 160.224C129.409 182.862 95.3847 184.727 95.3847 184.727L81.0378 107.525L100.182 112.912Z" fill="#559C43"/>
<path d="M103.948 174.982C96.7915 194.807 59.381 189.634 40.6193 188.247C31.8187 187.603 25.597 186.652 21.6964 185.894L18.4244 180.946L21.6803 175.337L18.779 170.469H26.7898L19.8267 158.848L23.0665 159.75L16.5869 149.531L53.1271 147.355C53.1271 147.355 43.1337 110.654 49.0169 109.558C54.9001 108.478 78.9163 107.527 78.9163 107.527L87.1689 120.518C87.1689 120.518 111.088 155.157 103.948 174.982Z" fill="#559C43"/>
<path d="M96.6435 184.36C96.5226 184.36 96.4017 184.305 96.3228 184.198C96.1874 184.021 96.2245 183.768 96.4018 183.634C117.999 167.356 92.2787 129.088 92.0176 128.703C91.9402 128.59 91.9241 128.447 91.9789 128.321C92.0321 128.195 92.1449 128.105 92.2803 128.081L105.204 125.766C105.417 125.725 105.633 125.873 105.671 126.092C105.71 126.311 105.565 126.521 105.346 126.559L93.0233 128.766C96.0504 133.448 117.699 168.593 96.8869 184.279C96.8144 184.332 96.7289 184.36 96.6435 184.36Z" fill="#6E69E2"/>
<path d="M139.956 95.4883C139.956 95.4883 122.679 92.6917 112.746 84.6955C102.812 76.6992 101.329 73.2337 101.329 73.2337L89.7141 95.73C89.7141 95.73 105.202 107.222 120.049 108.504C133.122 109.632 138.459 108.538 138.459 108.538L139.956 95.4883Z" fill="#F48C6C"/>
<path d="M121.255 84.2699C121.255 84.2699 116.846 92.9174 113.613 99.384C110.38 105.851 106.853 109.687 107.103 109.393C107.353 109.1 94.1017 101.989 90.733 94.3745C87.3642 86.7602 92.701 59.1979 92.701 59.1979C92.701 59.1979 96.0794 62.4264 104.309 70.2857C112.149 77.771 121.255 84.2699 121.255 84.2699Z" fill="#2D386B"/>
<path d="M100.182 112.912C100.182 112.912 93.7342 94.908 93.2877 82.4743C92.8413 70.0423 94.1162 61.7108 92.7011 59.1963C91.2875 56.6819 77.1163 52.425 68.2689 53.6194C58.2756 54.9685 48.9883 67.0072 46.9573 80.9238C44.9264 94.8403 46.7414 114.368 46.7414 114.368L100.182 112.912Z" fill="#2D386B"/>
<path d="M110.836 119.401C110.836 119.401 94.6433 112.761 86.7808 102.721C78.9183 92.6804 78.2607 88.97 78.2607 88.97L61.8474 108.247C61.8474 108.247 75.8075 124.227 88.4958 127.567C101.186 130.907 107.257 129.422 107.257 129.422L110.836 119.401Z" fill="#F48C6C"/>
<path d="M85.7976 95.0111C85.7976 95.0111 77.9335 99.8354 72.6531 103.834C68.3705 107.077 61.6798 111.515 61.6798 111.515C61.6798 111.515 44.5364 95.0917 45.9967 74.009C47.4087 53.621 68.2689 53.621 68.2689 53.621L85.7976 95.0111Z" fill="#2D386B"/>
<path d="M75.0692 44.9752L72.2839 54.0772C72.2839 54.0772 73.1253 57.1961 78.317 59.2576C82.1854 60.7937 83.852 60.323 83.852 60.323L84.7095 55.5439L85.5396 50.8825L76.573 45.8262L75.0692 44.9752Z" fill="#F48C6C"/>
<path d="M76.5731 45.8262C76.5199 46.0825 76.5247 46.4032 76.5683 46.7852C77.213 51.9544 82.4805 54.6381 84.7096 55.5455L85.5397 50.8841L76.5731 45.8262Z" fill="black"/>
<path d="M93.9178 30.7588C93.9178 30.7588 95.2024 43.6325 91.3792 49.3948C87.5559 55.1587 82.1047 52.2961 79.0454 49.9557C75.9862 47.6137 75.0674 44.9784 75.0674 44.9784C75.0674 44.9784 71.4876 45.03 70.298 41.3324C69.1085 37.6349 71.5521 34.6176 73.6491 34.4225C75.746 34.2275 77.5077 36.2665 77.5077 36.2665L76.8485 32.4335C76.8485 32.4335 89.4562 18.106 93.9178 30.7588Z" fill="#F48C6C"/>
<path d="M88.8858 44.9687C88.8036 44.9687 88.7214 44.9445 88.6505 44.8946C88.4699 44.7656 88.4264 44.5142 88.557 44.3321C89.8722 42.4865 89.0663 39.7416 89.0599 39.7142C88.9954 39.5014 89.1163 39.2774 89.329 39.2113C89.5515 39.1468 89.7658 39.2677 89.8303 39.4804C89.869 39.6078 90.7587 42.6283 89.2114 44.7995C89.1356 44.9091 89.0115 44.9687 88.8858 44.9687Z" fill="black"/>
<path d="M75.4028 41.4308C75.2513 41.4308 75.1062 41.3453 75.0369 41.1987L73.0495 36.9483C72.9544 36.7468 73.0414 36.5066 73.2445 36.4115C73.446 36.3132 73.6829 36.4051 73.7797 36.6066L75.767 40.8569C75.8621 41.0584 75.7751 41.2986 75.572 41.3937C75.5188 41.4195 75.4608 41.4308 75.4028 41.4308Z" fill="black"/>
<path d="M74.6741 39.8721C74.6064 39.8673 72.3853 39.4885 72.3853 39.4885C72.1661 39.4498 72.0194 39.2435 72.0565 39.0227C72.0936 38.8035 72.2886 38.652 72.5207 38.6923L74.7418 39.071C74.961 39.1081 75.1077 39.316 75.0706 39.5352C75.0384 39.7335 74.8675 39.8721 74.6741 39.8721Z" fill="black"/>
<path d="M84.5463 34.4177C84.4431 34.4177 84.3384 34.3774 84.2578 34.2968C84.1015 34.1372 84.1047 33.8826 84.2626 33.7262C85.5295 32.4835 87.2977 33.4989 87.3734 33.5441C87.5636 33.6569 87.6281 33.9019 87.5169 34.0937C87.4057 34.2839 87.1559 34.3516 86.9657 34.2388C86.9125 34.2081 85.6552 33.4925 84.83 34.3016C84.751 34.379 84.6495 34.4177 84.5463 34.4177Z" fill="black"/>
<path d="M93.6453 35.986C93.5067 35.986 93.3729 35.9151 93.2971 35.7877C93.1585 35.5524 92.6782 34.9173 92.1237 34.8094C91.8417 34.7529 91.5789 34.8335 91.2969 35.0479C91.1212 35.1833 90.8681 35.1495 90.7311 34.9722C90.5973 34.7949 90.6296 34.5418 90.8085 34.408C91.2775 34.0502 91.7659 33.918 92.2817 34.0196C93.3084 34.2227 93.9644 35.3348 93.9902 35.3816C94.1014 35.5734 94.037 35.82 93.8452 35.9312C93.7855 35.9699 93.7146 35.986 93.6453 35.986Z" fill="black"/>
<path d="M93.9179 30.7589C93.9179 30.7589 90.762 28.3137 88.8858 29.1374C87.0097 29.961 82.2032 40.0639 77.5079 36.2649C72.8127 32.4658 77.5079 26.4537 77.5079 26.4537C77.5079 26.4537 94.2145 18.7636 93.9179 30.7589Z" fill="#FCAD4F"/>
<path d="M84.4967 60.842C82.9219 60.842 79.9417 60.6002 76.9066 59.0658C72.5418 56.8576 71.3716 53.8886 71.3232 53.7645C71.2442 53.5581 71.349 53.326 71.5553 53.2455C71.76 53.1649 71.9953 53.268 72.0759 53.4759C72.0872 53.505 73.2042 56.2902 77.2725 58.3469C81.3826 60.4262 85.5153 59.9958 85.5524 59.991C85.791 59.9668 85.9747 60.1263 85.9973 60.3472C86.0231 60.568 85.8635 60.7679 85.6427 60.792C85.5895 60.7985 85.172 60.842 84.4967 60.842Z" fill="#EF6354"/>
<path d="M62.9465 149.871C59.6519 149.871 54.3667 148.48 53.0224 148.111C52.858 148.066 52.7387 147.921 52.7275 147.75C52.7162 147.579 52.8129 147.42 52.9708 147.352C53.3609 147.186 62.5596 143.302 65.3094 147.502C65.7478 148.171 65.8091 148.733 65.4883 149.172C65.1192 149.68 64.1715 149.871 62.9465 149.871ZM54.4457 147.652C58.7025 148.73 64.144 149.652 64.8387 148.696C64.9725 148.513 64.7694 148.145 64.6356 147.942C62.7708 145.095 56.944 146.765 54.4457 147.652Z" fill="#6E69E2"/>
<path d="M96.6434 100.888C96.45 100.888 96.2808 100.749 96.2469 100.553L93.7277 85.6964C93.6906 85.4772 93.8372 85.2676 94.0564 85.2306C94.2918 85.1903 94.4852 85.3418 94.5207 85.561L97.0399 100.417C97.077 100.636 96.9303 100.846 96.7111 100.883C96.6886 100.886 96.666 100.888 96.6434 100.888Z" fill="#EF6354"/>
<path d="M61.68 111.918C61.5752 111.918 61.4689 111.876 61.3899 111.793C60.9112 111.295 49.6397 99.4807 47.4298 88.8185C47.3847 88.6009 47.5249 88.3865 47.7425 88.343C47.9585 88.2914 48.1729 88.4365 48.218 88.6557C50.3811 99.0891 61.8541 111.115 61.9702 111.236C62.1249 111.397 62.12 111.652 61.9589 111.806C61.8815 111.881 61.7799 111.918 61.68 111.918Z" fill="#EF6354"/>
<path d="M50.4019 124.923C50.1924 124.923 50.0167 124.761 50.0006 124.549C49.9845 124.327 50.1521 124.135 50.3729 124.118C53.3919 123.902 55.5485 123.02 56.7864 121.498C58.1194 119.859 57.8889 118.012 57.8873 117.994C57.8583 117.773 58.0114 117.57 58.2306 117.541C58.4546 117.501 58.6529 117.664 58.6851 117.883C58.698 117.972 58.972 120.075 57.4231 121.992C56.0401 123.702 53.6884 124.688 50.4309 124.922C50.4213 124.923 50.4116 124.923 50.4019 124.923Z" fill="#6E69E2"/>
<path d="M150.456 109.084C150.261 109.084 150.09 108.944 150.058 108.746L148.614 99.8337C144.708 102.77 138.511 100.707 138.237 100.614C138.027 100.541 137.915 100.312 137.987 100.103C138.058 99.8917 138.282 99.7821 138.498 99.8515C138.564 99.8756 145.137 102.06 148.619 98.7764C148.728 98.6732 148.885 98.6426 149.025 98.6877C149.167 98.7361 149.27 98.857 149.294 99.0052L150.854 108.617C150.888 108.836 150.741 109.044 150.521 109.079C150.498 109.081 150.477 109.084 150.456 109.084Z" fill="black"/>
<path d="M179.019 117.391C179.019 117.391 176.95 113.592 154.274 109.268C131.599 104.943 118.73 108.275 118.73 108.275L114.385 109.85L113.913 111.969L136.233 122.359L163.46 126.334L176.619 124.346L180.094 120.899C180.094 120.899 179.875 118.186 179.019 117.391Z" fill="#DFBCAC"/>
<path d="M130.508 114.369C130.508 114.369 138.659 110.784 139.956 111.515C141.254 112.245 144.411 119.401 144.411 119.401H152.358C152.358 119.401 158.447 114.999 159.88 115.593C161.313 116.186 164.537 121.924 164.537 121.924L146.728 131.588L130.508 114.369Z" fill="white"/>
<path d="M118.231 113.981C118.231 113.981 122.652 109.577 129.489 111.27C136.327 112.962 136.865 120.123 136.865 120.123C136.865 120.123 141.296 114.821 147.811 115.504C154.326 116.187 155.248 124.772 155.248 124.772C155.248 124.772 157.566 119.042 163.737 118.958C169.908 118.874 170.444 125.805 170.444 125.805L150.454 132.966L128.268 124.774L118.231 113.981Z" fill="#EF6354"/>
<path d="M133.374 122.633C133.374 122.633 143.761 115.576 157.015 117.941C170.267 120.306 171.342 131.588 171.342 131.588L133.374 122.633Z" fill="#FCAD4F"/>
<path d="M179.019 117.391C179.019 117.391 183.363 125.729 156.236 122.346C114.394 117.129 121.798 107.717 121.798 107.717C121.798 107.717 112.952 106.481 112.007 110.878C111.093 115.133 117.447 118.639 117.447 118.639C117.447 118.639 76.2714 155.861 103.342 179.99C123.171 197.664 181.962 197.92 191.599 173.259C197.905 157.123 177.696 129.412 177.696 129.412C177.696 129.412 188.269 123.755 179.019 117.391Z" fill="#C1907A"/>
<path d="M164.88 184.584C164.69 184.584 164.519 184.447 164.484 184.253C164.445 184.034 164.588 183.824 164.808 183.783C182.444 180.543 186.582 168.353 186.62 168.23C186.688 168.019 186.911 167.904 187.128 167.971C187.339 168.038 187.455 168.266 187.388 168.477C187.347 168.604 183.086 181.242 164.951 184.576C164.93 184.58 164.904 184.584 164.88 184.584Z" fill="white"/>
<path d="M102.438 115.215C102.438 115.215 110.835 115.593 116.304 119.719L114.397 121.734C114.397 121.734 127.306 132.378 124.924 133.368C122.54 134.359 120.147 132.064 119.067 132.172C117.987 132.28 113.722 141.342 111.756 141.614C108.6 142.051 103.156 137.576 100.121 133.556C97.0863 129.535 96.0918 122.327 96.0918 122.327L102.438 115.215Z" fill="#F48C6C"/>
<path d="M114.399 122.137C114.324 122.137 114.246 122.116 114.179 122.071L110.615 119.738C110.43 119.617 110.376 119.367 110.499 119.18C110.621 118.995 110.874 118.942 111.057 119.064L114.62 121.397C114.806 121.518 114.859 121.767 114.736 121.954C114.659 122.072 114.53 122.137 114.399 122.137Z" fill="black"/>
<path d="M84.5465 96.1926C84.4143 96.1926 84.2837 96.1265 84.2064 96.0056L78.3087 86.7586C78.1894 86.5716 78.2442 86.3218 78.4312 86.2025C78.6182 86.0832 78.868 86.138 78.9889 86.3266L84.8866 95.5737C85.0058 95.7606 84.9511 96.0105 84.7641 96.1297C84.6964 96.1716 84.6206 96.1926 84.5465 96.1926Z" fill="#EF6354"/>
<path d="M84.6722 47.1382C84.4949 47.1382 84.3305 47.019 84.2838 46.8401C84.2258 46.6241 84.3531 46.4033 84.5691 46.3452C84.7545 46.2953 86.4179 45.8713 87.3624 46.3807C87.5574 46.4855 87.6299 46.7305 87.5252 46.9271C87.4204 47.1237 87.1754 47.1979 86.9788 47.0899C86.4211 46.7869 85.1719 47.019 84.777 47.1253C84.7416 47.1334 84.7061 47.1382 84.6722 47.1382Z" fill="black"/>
<path d="M85.1717 39.0839C84.8751 39.034 84.7349 38.8228 84.7768 38.6036L85.2023 36.418C85.2201 36.3261 85.2684 36.2455 85.3393 36.1843L86.2162 35.4557C86.387 35.3139 86.6401 35.3364 86.7851 35.5089C86.927 35.6798 86.9028 35.9344 86.7335 36.0763L85.9663 36.7129L85.5682 38.7584C85.5311 38.9502 85.3603 39.0839 85.1717 39.0839Z" fill="black"/>
<path d="M91.5627 40.6426C91.2742 40.5991 91.1259 40.3895 91.1662 40.1703L91.5498 37.9766C91.5675 37.8799 91.6175 37.7929 91.6933 37.7316L92.8473 36.8016C93.0214 36.663 93.2761 36.6888 93.4147 36.8628C93.5549 37.0369 93.5275 37.29 93.3551 37.4302L92.3187 38.2651L91.9592 40.3089C91.9254 40.504 91.7545 40.6426 91.5627 40.6426Z" fill="black"/>
</g>
</svg>
