<svg width="202" height="202" viewBox="0 0 202 202" fill="none" xmlns="http://www.w3.org/2000/svg">
<circle cx="101" cy="101" r="101" fill="#FFEDD1"/>
<path d="M122.59 60.7142C122.59 60.7142 122.522 63.4244 122.454 63.9518C122.387 64.478 122.048 65.3936 122.048 65.4962C122.048 65.5975 122.963 68.4127 122.963 68.6495C122.963 68.8864 122.149 71.2304 122.183 71.3134C122.217 71.3964 125.728 74.2433 125.728 74.2433L119.639 73.3631L117.502 64.2411L122.59 60.7142Z" fill="white"/>
<path d="M157.856 83.9892C157.653 83.1749 150.736 75.5399 149.515 75.5936C148.295 75.6473 148.091 78.5956 148.091 78.5956C148.091 78.5956 145.445 78.2904 143.614 77.7825C141.783 77.2746 139.545 86.1207 139.545 86.1207C139.545 86.1207 131.121 79.4599 130.043 79.2829C128.965 79.1059 120.012 85.4017 120.012 85.4017C120.012 85.4017 116.709 78.8971 115.817 78.5944C114.925 78.2916 104.539 86.1207 104.539 86.1207C104.539 86.1207 120.245 91.1102 121.146 91.1102C122.047 91.1102 155.416 91.1102 155.416 91.1102L157.856 83.9892Z" fill="#C1907A"/>
<path d="M69.9332 16.0736C69.9332 16.0736 75.079 10.4908 73.2306 8.02347C71.3823 5.55619 68.141 7.69385 68.141 7.69385C68.141 7.69385 68.1496 4.91647 65.0487 5.00193C61.9478 5.08739 59.8773 8.25176 59.8773 8.25176C59.8773 8.25176 57.3416 5.36329 55.309 7.95632C53.2763 10.5494 54.2749 15.0591 54.2749 15.0591C54.2749 15.0591 52.1531 14.6037 52.5621 17.1552C52.9699 19.7067 56.1721 22.5183 56.1721 22.5183L69.9332 16.0736Z" fill="black"/>
<path d="M97.4774 75.0589C97.4774 75.0589 100.479 78.5944 105.558 79.1962C108.769 79.5759 111.772 78.5956 111.772 78.5956L111.602 70.7945L105.39 69.4943C105.39 69.4943 97.4152 69.8215 97.4774 75.0589Z" fill="#F48C6C"/>
<path d="M106.986 69.354C106.986 69.354 88.925 56.9125 84.259 49.2446C79.5931 41.5778 74.1531 67.2737 74.1531 67.2737L99.0774 75.5924L106.986 69.354Z" fill="#F48C6C"/>
<path d="M91.8578 55.3841C91.8578 55.3841 87.652 48.0237 84.2594 43.5531C80.2417 38.2584 74.9616 32.7756 74.1534 34.3285C73.3452 35.8814 76.2581 66.7707 76.2581 66.7707L91.8578 55.3841Z" fill="#EF6354"/>
<path d="M63.0681 126.076L86.4505 178.132L98.146 173.012L83.5743 121.512L63.0681 126.076Z" fill="#F48C6C"/>
<path d="M39.1326 121.448L42.6803 178.198L55.2218 177.344L59.5972 124.096L39.1326 121.448Z" fill="#F48C6C"/>
<path d="M59.2363 87.6394V118.502L72.9584 162.952L82.6029 166.798L84.2632 161.719L87.0589 163.135L87.7792 159.68L93.8467 160.816L97.4725 156.237L102.893 157.031L103.833 154.968C99.0962 139.878 76.7429 75.3335 76.7429 75.3335L59.2363 87.6394Z" fill="#2D386B"/>
<path d="M34.6001 163.343L41.4733 170.57L43.6098 168.177L44.9283 169.044L48.2977 166.529L52.8758 170.106L58.8823 165.723L60.1519 169.044L64.8765 164.148C65.4381 144.981 66.9519 94.5859 67.367 93.9633C67.8797 93.1942 76.5842 85.8204 76.5842 85.8204L70.9562 78.1658L44.2446 71.5978C44.2446 71.5978 41.0094 84.6972 39.7764 93.1331C38.7631 100.031 35.6988 146.166 34.6001 163.343Z" fill="#2D386B"/>
<path d="M60.1505 191.309C60.1505 192.851 59.6328 194.616 58.5707 195.047C57.522 195.492 48.9226 196.429 41.4072 195.775C34.2263 195.146 32.4988 191.914 33.1153 190.346C33.3986 189.606 33.7074 188.915 33.9418 188.396C34.164 187.865 34.435 187.384 34.7561 186.94C35.546 185.855 37.0757 183.633 37.47 182.499C37.9876 180.957 38.7897 177.65 39.3208 176.108C39.8518 174.566 42.3545 173.008 42.3545 173.008C42.3545 173.008 54.868 172.356 55.9289 173.245C56.9898 174.121 58.5695 182.276 58.5695 183.375V184.486C58.5695 185.609 59.4338 187.965 59.877 189.73C59.9515 189.952 60.0003 190.174 60.0369 190.372C60.1004 190.742 60.1505 191.049 60.1505 191.309Z" fill="#FCAD4F"/>
<path d="M127.694 172.985C127.348 173.7 93.1578 194.626 91.9492 194.454C91.517 194.392 90.4561 192.813 89.1364 190.432C86.7301 186.1 84.2665 177.576 82.6013 172.42C82.6013 172.42 94.6887 165.274 96.1695 165.224C97.6626 165.175 115.233 166.939 115.233 166.939C115.233 166.939 120.587 165.644 123.832 167.111C124.782 167.544 125.547 168.172 126.127 168.851C127.532 170.493 127.94 172.492 127.694 172.985Z" fill="#FCAD4F"/>
<path d="M41.7661 75.9318C42.1934 76.6276 45.3553 79.1059 58.3326 79.3867C62.1416 79.4721 65.4744 79.2524 68.2945 78.8739C75.0823 77.9949 78.8547 76.2492 79.05 75.9318C79.1843 75.7242 79.8191 68.7045 80.1121 60.6104C80.4417 50.8438 80.2708 39.5146 78.0855 36.6945C74.069 31.5304 65.9262 31.8356 65.9262 31.8356C58.1007 30.8834 49.7258 32.3484 46.5761 35.4493C43.4264 38.5379 41.3388 75.2359 41.7661 75.9318Z" fill="#EF6354"/>
<path d="M59.551 26.2504L59.7049 33.2066C59.7049 33.2066 61.0038 35.1782 65.0801 35.4187C68.1175 35.5982 69.1662 34.8889 69.1662 34.8889L68.6657 31.3754L68.1749 27.9485L60.7914 26.4957L59.551 26.2504Z" fill="#F48C6C"/>
<path d="M60.79 26.4957C60.812 26.685 60.8889 26.9084 61.0073 27.1623C62.6408 30.6026 66.9125 31.257 68.6668 31.3754L68.1748 27.9485L60.79 26.4957Z" fill="black"/>
<path d="M69.3737 12.0583C69.3737 12.0583 73.218 20.6993 71.8861 25.5765C70.5542 30.4536 66.1141 29.7175 63.4539 28.7945C60.7937 27.8716 59.5509 26.2516 59.5509 26.2516C59.5509 26.2516 57.0775 27.1086 55.4038 24.8147C53.73 22.5207 54.7336 19.8667 56.1448 19.2502C57.5561 18.6336 59.2469 19.6445 59.2469 19.6445L57.9101 17.1345C57.9101 17.1345 63.3745 4.29995 69.3737 12.0583Z" fill="#F48C6C"/>
<path d="M69.0463 23.1018C69.0158 23.1018 68.9865 23.0982 68.956 23.0884C68.7948 23.0384 68.7045 22.8674 68.7545 22.7063C69.2429 21.129 68.0587 19.4125 68.0465 19.3954C67.95 19.2575 67.983 19.067 68.1209 18.9706C68.2577 18.8741 68.4481 18.9071 68.5458 19.0451C68.6019 19.1244 69.9155 21.0216 69.3369 22.887C69.2978 23.0176 69.1769 23.1018 69.0463 23.1018Z" fill="black"/>
<path d="M58.8785 23.7379C58.7979 23.7379 58.7161 23.7062 58.6563 23.6415L56.3025 21.1473C56.1866 21.0252 56.1927 20.8323 56.3147 20.7164C56.4368 20.5992 56.6297 20.6053 56.7457 20.7286L59.0994 23.2227C59.2154 23.3448 59.2093 23.5377 59.0872 23.6537C59.0286 23.711 58.9529 23.7379 58.8785 23.7379Z" fill="black"/>
<path d="M56.3857 23.0701C56.2368 23.0701 56.1073 22.9615 56.0841 22.8113C56.0585 22.644 56.1733 22.489 56.3393 22.4634L57.9667 22.2168C58.1327 22.1972 58.289 22.3059 58.3146 22.4719C58.3402 22.6392 58.2255 22.7942 58.0594 22.8198L56.4321 23.0665C56.4174 23.0689 56.4016 23.0701 56.3857 23.0701Z" fill="black"/>
<path d="M65.1194 19.8691C64.968 19.8691 64.8373 19.7568 64.8166 19.603L64.6115 17.9878C64.5907 17.8206 64.7092 17.668 64.8752 17.646C65.0339 17.6191 65.195 17.7424 65.217 17.9097L65.4221 19.5248C65.4441 19.6921 65.3245 19.8447 65.1584 19.8667C65.1462 19.8691 65.1328 19.8691 65.1194 19.8691Z" fill="black"/>
<path d="M68.2946 78.8739C75.0824 77.9949 78.8548 76.2492 79.0501 75.9318C79.1844 75.7242 79.8192 68.7045 80.1122 60.6104V55.483C80.1122 55.483 79.0745 60.9156 78.0856 62.4783C77.0846 64.0531 74.7772 60.5128 72.1646 62.4783C69.5521 64.456 72.1646 68.3626 72.1646 68.3626C72.1646 68.3626 65.5844 64.2851 63.8997 69.9741C62.9352 73.2581 65.7431 76.6154 68.2946 78.8739Z" fill="#D3AFA1"/>
<path d="M69.9134 19.4845C69.7645 19.4845 69.6339 19.3759 69.6119 19.2233L69.3751 17.613C69.3507 17.447 69.4666 17.292 69.6327 17.2663C69.7938 17.2492 69.955 17.3579 69.9794 17.5239L70.2162 19.1342C70.2406 19.3002 70.1247 19.4552 69.9586 19.4809C69.9428 19.4833 69.9281 19.4845 69.9134 19.4845Z" fill="black"/>
<path d="M65.9164 35.7447C64.101 35.7447 61.7753 35.2674 59.5144 33.4434C59.3825 33.3372 59.3618 33.1456 59.468 33.0137C59.5742 32.8831 59.7671 32.8623 59.8965 32.9673C64.3256 36.5407 69.0014 34.6264 69.049 34.6069C69.2053 34.5397 69.3835 34.6142 69.4494 34.768C69.5154 34.9231 69.4433 35.1025 69.2883 35.1685C69.2614 35.1807 67.8917 35.7447 65.9164 35.7447Z" fill="white"/>
<path d="M52.0465 55.3731C52.0465 55.3731 63.1853 69.6213 73.8126 71.8933C84.4398 74.1664 71.8715 81.5866 71.8715 81.5866C71.8715 81.5866 45.0671 81.1776 41.7098 63.82C39.6173 52.9974 52.0465 55.3731 52.0465 55.3731Z" fill="#F48C6C"/>
<path d="M58.8781 31.7978C58.8781 31.7978 41.7096 31.3754 39.1325 48.0176C37.1999 60.4957 41.1725 71.3329 41.1725 71.3329L60.824 60.9388L58.8781 31.7978Z" fill="#EF6354"/>
<path d="M76.258 72.6783C76.258 72.6783 82.7796 68.608 83.5939 69.6701C84.4082 70.7335 80.9349 75.2774 80.9349 75.2774L83.7111 77.7813H92.6512L91.8576 79.4062C91.8576 79.4062 94.0978 79.3464 93.8244 80.7711C93.5509 82.1958 86.8352 85.2478 81.1388 86.0609C75.4412 86.8752 67.3679 78.9887 67.3679 78.9887L76.258 72.6783Z" fill="#F48C6C"/>
<path d="M91.8577 79.7126H84.8002C84.6988 79.7126 84.6036 79.6614 84.5462 79.5771L83.456 77.9522C83.362 77.8118 83.3999 77.6226 83.5391 77.5286C83.677 77.4346 83.8675 77.4712 83.9627 77.6116L84.9625 79.101H91.8565C92.025 79.101 92.1617 79.2377 92.1617 79.4062C92.1629 79.5759 92.0262 79.7126 91.8577 79.7126Z" fill="black"/>
<path d="M66.0543 139.162C65.8712 139.153 65.7418 139.01 65.7491 138.842L67.9917 91.7023C67.9966 91.5961 68.0564 91.5009 68.1492 91.4496L76.1102 87.0925C76.2567 87.0107 76.4423 87.0657 76.5241 87.2134C76.6046 87.3611 76.5509 87.5467 76.4032 87.6272L68.5924 91.9025L66.357 138.871C66.3509 139.034 66.2154 139.162 66.0543 139.162Z" fill="#FCAD4F"/>
<path d="M44.459 88.2975C44.1697 88.2975 43.8767 88.2804 43.5776 88.2462C43.4103 88.2267 43.2907 88.0753 43.309 87.908C43.3285 87.7408 43.4848 87.6211 43.6471 87.6394C48.8308 88.2498 52.6947 82.6951 52.7337 82.6402C52.8302 82.501 53.0206 82.4656 53.1574 82.5608C53.2965 82.656 53.3319 82.8453 53.2367 82.9844C53.0817 83.2139 49.5364 88.2975 44.459 88.2975Z" fill="#FCAD4F"/>
<path d="M79.2571 164.8C79.1301 164.8 79.0117 164.721 78.969 164.594L66.2907 127.916C66.2358 127.757 66.32 127.582 66.4799 127.527C66.6399 127.471 66.8132 127.557 66.8682 127.717L79.5464 164.395C79.6013 164.554 79.5171 164.728 79.3572 164.783C79.3242 164.795 79.29 164.8 79.2571 164.8Z" fill="#FCAD4F"/>
<path d="M39.1327 167.106C38.9422 167.094 38.8153 166.948 38.8275 166.779C38.8617 166.304 42.236 119.185 43.3091 109.647C44.3822 100.109 46.1622 88.0667 46.1805 87.9471C46.2049 87.781 46.3661 87.6663 46.5272 87.6907C46.6945 87.7151 46.8092 87.8702 46.7836 88.0374C46.7665 88.1583 44.9877 100.189 43.9159 109.717C42.844 119.244 39.4708 166.351 39.4367 166.826C39.4257 166.984 39.2914 167.106 39.1327 167.106Z" fill="#FCAD4F"/>
<path d="M52.9865 181.928H43.6131C43.4446 181.928 43.3079 181.792 43.3079 181.623C43.3079 181.455 43.4446 181.318 43.6131 181.318H51.8451L46.4246 178.198C46.2781 178.113 46.2281 177.927 46.3123 177.781C46.3965 177.634 46.5846 177.584 46.7286 177.669L53.1391 181.36C53.2588 181.429 53.3174 181.57 53.282 181.703C53.2454 181.834 53.1245 181.928 52.9865 181.928Z" fill="#EF6354"/>
<path d="M100.584 170.935C100.511 170.935 100.439 170.909 100.381 170.858C100.285 170.773 100.252 170.636 100.301 170.516L102.274 165.605C102.336 165.447 102.514 165.372 102.67 165.435C102.827 165.497 102.902 165.676 102.84 165.832L101.186 169.951L108.356 166.011C108.503 165.932 108.689 165.985 108.771 166.132C108.851 166.28 108.798 166.466 108.65 166.547L100.732 170.898C100.685 170.922 100.634 170.935 100.584 170.935Z" fill="#EF6354"/>
<path d="M93.9331 78.2196C95.8595 75.9745 97.7372 72.8638 97.4466 72.1972C96.9595 71.1034 94.3384 67.6253 93.6743 67.2761C93.0101 66.9269 88.2807 69.5212 88.2807 69.5212C88.2807 69.5212 90.9616 64.8003 90.4684 64.1215C89.9752 63.4427 84.9906 64.9797 84.7464 65.7733C84.2373 67.4092 83.5207 68.934 83.5207 68.934L82.2034 67.4055C82.2034 67.4055 80.7275 75.9452 82.3304 77.5737C83.4401 78.7006 87.7399 79.632 90.1021 80.4012C90.3329 80.4842 90.5429 80.5367 90.7089 80.5757C91.4145 80.7467 92.6817 79.665 93.9331 78.2196Z" fill="white"/>
<path d="M81.6785 74.2434C81.6785 74.2434 84.7269 71.0021 84.1971 69.8618C83.6672 68.7216 81.156 70.0523 81.156 70.0523L81.6785 74.2434Z" fill="#F98575"/>
<path d="M57.9322 62.7872C57.8235 62.7872 57.7173 62.7286 57.6624 62.6248C57.5843 62.4758 57.6404 62.2915 57.7894 62.2121L61.2162 60.3992L59.3825 56.6244C59.3093 56.4718 59.3728 56.2899 59.5241 56.2155C59.6767 56.1422 59.8586 56.2057 59.9319 56.3571L61.8938 60.3968C61.9658 60.5445 61.9072 60.724 61.7619 60.8009L58.0738 62.7517C58.0299 62.7762 57.981 62.7872 57.9322 62.7872Z" fill="white"/>
<path d="M102.764 189.5H150.187C151.64 189.5 152.85 188.385 152.968 186.938L161.007 88.5013H91.9443L99.9835 186.938C100.102 188.384 101.312 189.5 102.764 189.5Z" fill="#2D701C"/>
<path d="M91.6844 94.6555H161.268C164.448 94.6555 167.026 92.0771 167.026 88.8957V88.1046C167.026 84.9243 164.448 82.346 161.268 82.346H91.6844C88.5042 82.346 85.9258 84.9243 85.9258 88.1046V88.8957C85.9246 92.0771 88.5042 94.6555 91.6844 94.6555Z" fill="#2D701C"/>
<path d="M99.6282 189.5C99.6282 192.74 102.255 195.367 105.495 195.367C108.736 195.367 111.363 192.741 111.363 189.5C111.363 186.26 108.736 183.634 105.495 183.634C102.254 183.633 99.6282 186.26 99.6282 189.5Z" fill="#C1907A"/>
<path d="M99.6136 189.5H147.036C148.489 189.5 149.699 188.385 149.818 186.938L157.857 88.5013H88.7935L96.8326 186.938C96.951 188.384 98.1621 189.5 99.6136 189.5Z" fill="#559C43"/>
<path d="M88.5333 94.6555H158.117C161.297 94.6555 163.875 92.0771 163.875 88.8957V88.1046C163.875 84.9243 161.297 82.346 158.117 82.346H88.5333C85.353 82.346 82.7734 84.9243 82.7734 88.1046V88.8957C82.7747 92.0771 85.353 94.6555 88.5333 94.6555Z" fill="#559C43"/>
<path d="M116.607 128.869C116.863 128.869 117.113 128.746 117.266 128.516L121.623 121.942C121.968 121.42 122.606 121.107 123.326 121.107C124.046 121.107 124.683 121.42 125.03 121.942C125.271 122.303 125.76 122.402 126.124 122.164C126.488 121.924 126.587 121.434 126.346 121.07C125.707 120.106 124.578 119.53 123.327 119.53C122.076 119.53 120.948 120.106 120.308 121.07L115.951 127.645C115.71 128.007 115.809 128.497 116.173 128.738C116.305 128.826 116.456 128.869 116.607 128.869Z" fill="#FCAD4F"/>
<path d="M132.039 139.007C133.4 139.007 134.614 138.321 135.206 137.218C135.722 136.257 135.666 135.136 135.058 134.218L130.701 127.643C130.46 127.28 129.973 127.181 129.607 127.421C129.243 127.662 129.144 128.151 129.385 128.515L133.741 135.089C134.133 135.68 133.956 136.209 133.814 136.471C133.496 137.062 132.816 137.428 132.036 137.428C131.601 137.428 131.248 137.781 131.248 138.217C131.25 138.654 131.603 139.007 132.039 139.007Z" fill="#FCAD4F"/>
<path d="M114.611 139.007H123.324C123.76 139.007 124.113 138.654 124.113 138.218C124.113 137.782 123.76 137.429 123.324 137.429H114.611C113.832 137.429 113.151 137.063 112.834 136.472C112.692 136.211 112.515 135.681 112.907 135.09C113.147 134.727 113.048 134.238 112.685 133.997C112.321 133.758 111.83 133.855 111.591 134.219C110.983 135.137 110.927 136.259 111.443 137.219C112.036 138.321 113.25 139.007 114.611 139.007Z" fill="#FCAD4F"/>
<path d="M127.375 138.427C127.536 138.334 127.536 138.102 127.375 138.009L125.339 136.834L123.303 135.658C123.141 135.565 122.941 135.681 122.941 135.867V138.218V140.569C122.941 140.755 123.141 140.871 123.303 140.778L125.339 139.603L127.375 138.427Z" fill="#FCAD4F"/>
<path d="M128.125 124.27C127.964 124.177 127.763 124.295 127.763 124.48L127.771 126.831L127.777 129.183C127.778 129.368 127.978 129.483 128.139 129.39L130.172 128.209L132.205 127.027C132.365 126.934 132.365 126.702 132.204 126.609L130.164 125.44L128.125 124.27Z" fill="#FCAD4F"/>
<path d="M114.073 130.879C114.051 131.063 114.235 131.202 114.406 131.129L116.569 130.207L118.733 129.285C118.904 129.213 118.932 128.983 118.783 128.871L116.903 127.459L115.023 126.047C114.875 125.935 114.661 126.026 114.639 126.21L114.356 128.544L114.073 130.879Z" fill="#FCAD4F"/>
<path d="M135.557 189.267C135.557 192.507 138.183 195.134 141.423 195.134C144.663 195.134 147.29 192.508 147.29 189.267C147.29 186.027 144.664 183.4 141.423 183.4C138.184 183.4 135.557 186.026 135.557 189.267Z" fill="#C1907A"/>
<path d="M159.009 95.0144H109.185C109.016 95.0144 108.88 94.8777 108.88 94.7092C108.88 94.5407 109.016 94.404 109.185 94.404H159.01C159.179 94.404 159.315 94.5407 159.315 94.7092C159.315 94.8777 159.178 95.0144 159.009 95.0144Z" fill="#2D386B"/>
<path d="M70.171 14.0336C70.171 14.0336 69.5545 12.6431 67.8991 12.5014C66.2436 12.3598 65.1852 13.4513 65.1852 13.4513C65.1852 13.4513 64.7103 16.1578 62.6849 17.9488C61.248 19.2196 59.2459 19.6445 59.2459 19.6445L57.66 17.6448L56.6492 15.1641L61.773 10.4419L68.142 7.69263L71.0366 10.7667L70.171 14.0336Z" fill="black"/>
<path d="M70.23 16.3922C70.1885 16.3922 70.1458 16.3837 70.1055 16.3654L69.0446 15.8905C68.8908 15.8221 68.8212 15.6414 68.8908 15.4876C68.9592 15.3338 69.1411 15.2642 69.2937 15.3338L70.3546 15.8087C70.5084 15.877 70.578 16.0577 70.5084 16.2115C70.4583 16.3251 70.346 16.3922 70.23 16.3922Z" fill="black"/>
<path d="M64.7284 16.3922C64.6039 16.3922 64.4855 16.3141 64.4415 16.1896C64.3854 16.0308 64.4672 15.855 64.6259 15.7989L65.9505 15.324C66.1104 15.2703 66.2837 15.3496 66.3411 15.5083C66.3973 15.667 66.3155 15.8416 66.1568 15.899L64.831 16.3739C64.798 16.3861 64.7626 16.3922 64.7284 16.3922Z" fill="black"/>
<path d="M68.3518 24.9245C68.2346 24.9245 68.1223 24.8562 68.0722 24.7426C68.0039 24.5888 68.0747 24.4081 68.2285 24.3398L69.7899 23.6512C69.945 23.5816 70.1232 23.6524 70.1928 23.8063C70.2612 23.9601 70.1904 24.1408 70.0365 24.2091L68.4751 24.8989C68.4348 24.916 68.3933 24.9245 68.3518 24.9245Z" fill="black"/>
<path d="M67.9233 26.8009C67.872 26.8009 67.8195 26.7875 67.7719 26.7607C67.6254 26.6764 67.5741 26.4909 67.6584 26.3444C68.7486 24.4362 67.214 22.7991 67.1481 22.7295C67.0321 22.6074 67.0358 22.4145 67.1566 22.2986C67.2787 22.1838 67.4704 22.185 67.5876 22.3059C67.6071 22.3266 69.5079 24.3361 68.1894 26.6471C68.1321 26.7448 68.0283 26.8009 67.9233 26.8009Z" fill="black"/>
<path d="M120.079 60.6727C120.079 60.6727 107.6 62.8775 105.226 69.4931C102.852 76.11 106.853 80.8077 113.907 79.9165C120.961 79.0253 125.98 74.9563 125.98 74.5498C125.98 74.1432 122.113 71.8737 121.842 71.8212C121.571 71.7687 121.911 68.9682 121.503 68.3675C121.096 67.7669 119.807 65.9356 119.536 65.5291C119.265 65.1226 122.928 60.9168 122.588 60.7142C122.25 60.5115 120.079 60.6727 120.079 60.6727Z" fill="#DFBCAC"/>
<path d="M109.92 70.9776C109.364 74.4069 109.371 77.2612 109.934 77.3528C110.498 77.4443 111.405 74.7378 111.961 71.3085C112.516 67.8792 112.509 65.0249 111.945 64.9333C111.382 64.8418 110.475 67.5471 109.92 70.9776Z" fill="white"/>
<path d="M103.599 66.9306C103.599 66.9306 109.835 67.1028 110.445 67.4092C111.055 67.7156 112.926 71.6796 112.873 72.4133C112.801 73.4254 110.925 72.9468 110.038 72.4133C108.818 71.6784 108.309 70.8617 108.309 70.8617C108.309 70.8617 104.091 72.6538 102.408 70.3721C101.421 69.0353 103.599 66.9306 103.599 66.9306Z" fill="#F48C6C"/>
<path d="M105.447 72.0629C104.588 72.0629 103.636 71.8237 102.706 71.1046C102.573 71.0008 102.548 70.8092 102.651 70.6761C102.756 70.5418 102.946 70.5186 103.08 70.6212C105.492 72.4866 108.102 70.6346 108.129 70.6163C108.266 70.5186 108.456 70.5467 108.555 70.6834C108.654 70.8202 108.625 71.0106 108.488 71.1095C108.467 71.1241 107.145 72.0629 105.447 72.0629Z" fill="black"/>
<path d="M115.108 70.5357C114.553 73.965 114.56 76.8193 115.124 76.9108C115.688 77.0024 116.595 74.2958 117.151 70.8665C117.706 67.4373 117.699 64.583 117.136 64.4914C116.571 64.4011 115.664 67.1064 115.108 70.5357Z" fill="white"/>
<path d="M63.9057 22.4914C63.8581 22.4914 63.8105 22.4805 63.7653 22.4573L61.4799 21.2792C61.3298 21.2023 61.2712 21.0179 61.3493 20.8677C61.4275 20.7176 61.6106 20.6602 61.7607 20.7371L64.0461 21.9152C64.1951 21.9921 64.2549 22.1765 64.1767 22.3266C64.123 22.4316 64.0156 22.4914 63.9057 22.4914Z" fill="#AA7966"/>
</svg>
