<svg width="210" height="202" viewBox="0 0 210 202" fill="none" xmlns="http://www.w3.org/2000/svg">
<circle cx="101" cy="101" r="101" fill="#FFEDD1"/>
<path d="M17.856 103.855C17.856 103.855 8.02498 104.705 7.56594 100.119C7.10739 95.5326 14.0755 96.7515 19.3947 102.236L17.856 103.855Z" fill="#FFA822"/>
<path d="M17.8911 103.103C17.8911 103.103 10.9667 96.0731 14.2067 92.7948C17.4471 89.5165 20.952 95.6617 20.1199 103.257L17.8911 103.103Z" fill="#FFA822"/>
<path d="M19.82 101.739C19.82 101.739 19.5322 91.8758 24.1372 91.6793C28.7426 91.4832 27.1277 98.3708 21.348 103.368L19.82 101.739Z" fill="#FFA822"/>
<path d="M20.0134 103.948C27.4502 114.272 31.9198 126.708 32.7554 139.405" stroke="#7A3D2C" stroke-miterlimit="10" stroke-linecap="round" stroke-linejoin="round"/>
<path d="M29.0249 121.329C29.0492 121.183 29.0734 121.038 29.0977 120.887C29.5004 118.578 31.5579 108.058 35.367 109.78C35.4447 109.814 35.5223 109.858 35.5999 109.902C40.0302 112.45 29.0249 121.329 29.0249 121.329Z" fill="#FFA822"/>
<path d="M35.367 109.781C32.2032 112.629 29.8595 116.725 29.0977 120.888C29.5004 118.578 31.5578 108.058 35.367 109.781Z" fill="#FF6B3D"/>
<path d="M29.0249 121.329C29.0249 121.329 29.0152 121.329 28.9909 121.334H28.986C28.1514 121.441 14.0988 123.158 15.1275 118.088C15.1809 117.826 15.2634 117.593 15.3799 117.399C17.3597 113.861 28.0059 120.669 28.9569 121.285C28.9812 121.3 29.0006 121.31 29.0103 121.319C29.02 121.325 29.0249 121.329 29.0249 121.329Z" fill="#FFA822"/>
<path d="M20.0134 100.755C20.0134 100.755 27.5492 92.2388 31.5738 95.7053C35.5984 99.1719 28.8109 103.687 20.0134 103.329V100.755Z" fill="#FFA822"/>
<path d="M18.5116 104.106C18.5116 104.106 10.2751 111.947 6.56158 108.149C2.84802 104.351 9.9971 100.433 18.7319 101.541L18.5116 104.106Z" fill="#FFA822"/>
<path d="M20.903 101.381C20.903 101.381 30.75 100.74 31.111 105.335C31.472 109.93 24.5311 108.563 19.3298 102.967L20.903 101.381Z" fill="#FFA822"/>
<path d="M20.8519 102.132C20.8519 102.132 27.6254 109.308 24.3165 112.517C21.0072 115.725 17.6338 109.507 18.6271 101.931L20.8519 102.132Z" fill="#FFA822"/>
<path d="M18.8946 103.455C18.8946 103.455 18.9727 113.322 14.3643 113.421C9.75601 113.519 11.5169 106.667 17.401 101.794L18.8946 103.455Z" fill="#FFA822"/>
<path d="M15.9665 105.645C15.9665 105.645 21.4707 105.521 23.7862 101.95C23.7862 101.95 20.8461 96.3211 17.5504 97.8389C12.6548 100.094 15.9665 105.645 15.9665 105.645Z" fill="#FF6B3D"/>
<path d="M29.054 121.291C29.0394 121.3 29.0249 121.31 29.0103 121.32C29.0055 121.325 28.9958 121.329 28.9909 121.334H28.986C28.1514 121.441 14.0988 123.159 15.1275 118.088C15.1809 117.826 15.2634 117.593 15.3799 117.399C16.1854 118.287 17.4276 118.85 18.6019 119.258C21.9355 120.422 25.4341 121.106 28.9569 121.286C28.9909 121.286 29.02 121.291 29.054 121.291Z" fill="#FF6B3D"/>
<path d="M29.3248 151.695C28.2961 153.825 27.0684 155.902 25.9475 158.008C25.6078 158.644 25.2779 159.279 24.9673 159.925C24.2297 161.458 23.4097 162.957 21.8278 163.583C15.772 157.79 11.89 149.764 11.1136 141.413C10.7788 137.807 10.9972 134.134 10.216 130.597C9.43471 127.059 7.38699 123.517 4 122.231C4.27174 122.153 4.54832 122.09 4.82491 122.052C7.95958 121.576 11.3077 123.41 13.5204 125.739C15.9224 128.282 17.2471 131.64 18.2855 134.978C19.3191 138.317 20.1391 141.762 21.755 144.858C23.3757 147.959 25.9572 150.754 29.3248 151.695Z" fill="#0186CB"/>
<path d="M25.9475 158.008C25.6078 158.644 25.2779 159.279 24.9673 159.925C24.2297 161.458 23.4097 162.957 21.8278 163.583C15.772 157.79 11.89 149.764 11.1136 141.413C10.7788 137.807 10.9972 134.134 10.216 130.597C9.43471 127.059 7.38699 123.517 4 122.231C4.27174 122.153 4.54832 122.09 4.82491 122.052C5.02386 122.076 5.21796 122.115 5.4072 122.163C9.94422 123.323 13.1323 127.511 14.753 131.902C16.3688 136.298 16.7716 141.034 17.8779 145.581C18.9891 150.128 21.0174 154.757 24.9042 157.367C25.2439 157.596 25.5933 157.804 25.9475 158.008Z" fill="#015287"/>
<path d="M9.65356 124.774C13.0042 127.389 14.6826 131.608 15.6216 135.753C16.56 139.898 16.9162 144.192 18.3394 148.197C19.7626 152.202 22.5333 156.037 26.5856 157.318" stroke="white" stroke-miterlimit="10" stroke-linecap="round" stroke-linejoin="round"/>
<path d="M22.1578 182.139C22.0462 182.581 21.9249 183.017 21.7987 183.459C18.3195 182.799 15.2771 180.557 13.1226 177.752C10.9633 174.948 9.61429 171.6 8.60499 168.208C5.87308 159.017 5.49944 149.133 7.53745 139.768C7.54231 139.753 7.54231 139.739 7.54716 139.724C14.1659 144.834 19.193 151.399 21.8036 159.342C24.2686 166.854 24.1279 174.53 22.1578 182.139Z" fill="#01AB92"/>
<path d="M22.1577 182.139C21.9151 181.872 21.6822 181.596 21.4541 181.314C18.6688 177.893 16.5532 173.608 14.7626 169.198C11.002 159.939 8.5418 149.88 7.53735 139.768C7.54221 139.753 7.54221 139.739 7.54706 139.724C14.1658 144.834 19.1929 151.399 21.8035 159.342C24.2685 166.854 24.1278 174.53 22.1577 182.139Z" fill="#01CBAD"/>
<path d="M9.25171 145.782C11.1558 156.904 14.5996 167.761 19.4534 177.947" stroke="white" stroke-miterlimit="10" stroke-linecap="round" stroke-linejoin="round"/>
<path d="M61.5686 71.6922C57.8973 67.5569 40.6848 79.1513 39.0796 90.4113L45.6197 94.3083C45.6197 94.3083 65.3385 75.938 61.5686 71.6922Z" fill="#FEAEA3"/>
<path d="M57.1203 84.487C57.1203 84.487 75.7774 75.8206 72.7684 71.0055C69.7594 66.191 44.1755 83.8688 44.1755 83.8688L50.3798 88.1283L57.1203 84.487Z" fill="#FEAEA3"/>
<path d="M80.5226 76.6038C77.2667 81.2864 65.3588 86.8133 65.3588 86.8133L61.2779 89.0211L58.6188 90.4574L55.2124 83.8048C55.2124 83.8048 77.9994 68.5196 81.0079 73.3332C81.6144 74.3037 81.3427 75.4246 80.5226 76.6038Z" fill="#FEAEA3"/>
<path d="M80.5228 76.6038C77.2668 81.2864 65.359 86.8133 65.359 86.8133L61.2781 89.0211L60.4241 87.3519C60.4241 87.3519 72.8123 79.0397 80.5228 76.6038Z" fill="#E88E82"/>
<path d="M72.2211 90.6675C72.2211 90.6675 90.8782 82.0011 87.8687 77.1866C84.8597 72.372 62.0742 87.6586 62.0742 87.6586L65.4801 94.3088L72.2211 90.6675Z" fill="#FEAEA3"/>
<path d="M38.3979 120.88V94.86C38.3979 94.86 38.0369 82.0361 51.3976 80.5139C62.7119 79.473 68.2743 88.0191 68.2743 88.0191C68.2743 88.0191 76.9159 82.9779 78.8414 86.2208C80.7673 89.4637 72.8229 97.1572 63.9158 100.653L70.175 117.087L38.3979 120.88Z" fill="#FED3CD"/>
<path d="M38.3987 116.11H41.708V93.9706C41.708 93.9706 41.4314 84.1202 50.355 80.6604C38.0542 82.713 38.3987 94.8586 38.3987 94.8586V116.11Z" fill="#E88E82"/>
<path d="M86.5446 146.037L51.5878 146.668L39.84 146.881L35.5068 115.462L46.9052 112.706L71.2595 106.81L86.5446 146.037Z" fill="#015287"/>
<path d="M86.5445 146.037L51.5876 146.668L46.905 112.706L71.2593 106.81L86.5445 146.037Z" fill="#0186CB"/>
<path d="M96.0212 92.3533C102.162 103.515 105.409 116.253 105.359 128.992" stroke="#7A3D2C" stroke-miterlimit="10" stroke-linecap="round" stroke-linejoin="round"/>
<path d="M112.068 139.205V166.679H97.4868C93.0517 158.45 88.8446 149.841 86.1127 140.903C84.7007 136.269 84.8657 131.169 86.5737 126.642C87.3695 124.526 88.5098 122.44 88.4564 120.183C88.4079 118.043 87.2773 116.073 85.9477 114.399C84.6182 112.725 83.0508 111.226 81.8911 109.43C78.6497 104.423 79.2126 97.2799 83.1722 92.8254C83.2304 92.7575 83.2935 92.6847 83.3565 92.6168C82.061 95.8436 84.4338 100.206 86.7775 102.773C89.1212 105.34 92.2365 107.043 95.0751 109.052C97.9138 111.056 100.641 113.603 101.548 116.957C102.325 119.834 101.655 122.886 101.854 125.856C102.252 131.781 106.454 137.274 112.068 139.205Z" fill="#01CBAD"/>
<path d="M112.068 155.805V166.679H97.4868C93.0517 158.45 88.8446 149.841 86.1127 140.903C84.7007 136.269 84.8657 131.169 86.5737 126.642C87.3695 124.526 88.5098 122.44 88.4564 120.183C88.4079 118.043 87.2773 116.073 85.9477 114.399C84.6182 112.725 83.0508 111.226 81.8911 109.43C78.6497 104.423 79.2126 97.2799 83.1722 92.8254C81.1099 99.2791 83.1091 106.994 88.3303 111.386C90.7613 113.434 93.8038 114.841 95.6768 117.413C98.3069 121.023 97.9672 125.948 97.1811 130.344C96.3999 134.741 95.3032 139.355 96.7638 143.572C98.2874 147.968 102.3 151.02 106.435 153.156C108.269 154.107 110.181 154.936 112.068 155.805Z" fill="#01AB92"/>
<path d="M82.5957 101.981C82.6302 105.346 85.4019 108.013 88.1876 109.9C90.9734 111.787 94.1304 113.476 95.7414 116.43C97.1112 118.942 97.1175 121.979 96.6726 124.805C96.2271 127.631 95.3678 130.391 95.1179 133.241C94.7418 137.531 95.804 141.934 98.0953 145.58C100.387 149.226 103.893 152.093 107.921 153.615" stroke="white" stroke-miterlimit="10" stroke-linecap="round" stroke-linejoin="round"/>
<path d="M204.939 158.047C204.919 158.391 204.895 158.736 204.856 159.08C203.779 170.382 195.666 180.761 184.898 184.434C185.51 181.358 186.572 178.403 187.994 175.613C191.711 168.334 197.883 162.2 204.939 158.047Z" fill="#FFA822"/>
<path d="M204.856 159.08C203.779 170.382 195.666 180.761 184.898 184.434C185.51 181.358 186.572 178.403 187.994 175.613C195.273 172.226 201.43 166.325 204.856 159.08Z" fill="#FF6B3D"/>
<path d="M185.64 179.282C192.081 175.618 197.569 170.294 201.427 163.967" stroke="white" stroke-miterlimit="10" stroke-linecap="round" stroke-linejoin="round"/>
<path d="M205.526 111.376C205.482 114.487 206.409 117.519 207.03 120.572C207.651 123.624 207.947 126.904 206.715 129.762C204.977 133.794 200.664 136.046 198.063 139.578C195.006 143.718 194.574 149.215 194.797 154.354C195.025 159.498 195.792 164.709 194.71 169.741C193.628 174.773 190.124 179.737 185.053 180.601C186.815 176.879 186.708 172.895 186.247 168.8C186.184 168.247 186.111 167.698 186.029 167.15C185.529 163.617 184.757 160.119 184.51 156.562C183.787 146.134 187.853 135.468 195.341 128.175C197.374 126.196 199.703 124.371 200.916 121.804C201.993 119.528 202.066 116.918 202.129 114.399C202.187 111.876 202.275 109.27 203.371 106.999C204.347 104.995 206.433 103.409 208.617 103.336C208.913 103.316 209.204 103.336 209.5 103.379C206.802 104.932 205.569 108.261 205.526 111.376Z" fill="#01CBAD"/>
<path d="M205.526 111.376C205.482 114.487 206.409 117.519 207.03 120.572C207.651 123.624 207.947 126.904 206.715 129.762C204.978 133.794 200.664 136.046 198.063 139.578C195.006 143.718 194.574 149.215 194.797 154.354C195.025 159.498 195.792 164.709 194.71 169.741C193.628 174.773 190.124 179.737 185.053 180.601C186.815 176.879 186.708 172.895 186.247 168.8C186.184 168.247 186.111 167.698 186.029 167.15C186.461 166.412 186.839 165.651 187.164 164.874C189.202 159.997 189.552 154.616 190.28 149.38C191.007 144.145 192.25 138.729 195.661 134.697C198.136 131.776 201.658 129.684 203.362 126.259C204.764 123.434 204.706 120.135 204.536 116.99C204.361 113.841 204.114 110.585 205.201 107.63C205.832 105.898 207.069 104.297 208.617 103.336C208.913 103.316 209.204 103.336 209.5 103.379C206.802 104.932 205.569 108.261 205.526 111.376Z" fill="#01AB92"/>
<path d="M184.354 170.994C188.287 167.339 189.72 161.732 190.249 156.389C190.779 151.046 190.607 145.572 192.135 140.425C193.961 134.278 198.261 128.904 203.858 125.774" stroke="white" stroke-miterlimit="10" stroke-linecap="round" stroke-linejoin="round"/>
<path d="M179.641 189.278H119.831C115.601 189.278 112.172 185.849 112.172 181.619V62.8015C112.172 58.5717 115.601 55.1425 119.831 55.1425H179.641C183.87 55.1425 187.3 58.5717 187.3 62.8015V181.619C187.3 185.849 183.87 189.278 179.641 189.278Z" fill="#015287"/>
<path d="M170.739 189.278H112.172C107.599 189.278 103.891 185.571 103.891 180.998V63.4227C103.891 58.8497 107.599 55.1425 112.172 55.1425H170.739C175.312 55.1425 179.019 58.8497 179.019 63.4227V180.999C179.019 185.572 175.313 189.278 170.739 189.278Z" fill="#0186CB"/>
<path d="M175.488 176.03V63.4227C175.488 60.8048 173.358 58.675 170.74 58.675H112.172C109.554 58.675 107.424 60.8048 107.424 63.4227V176.031L175.488 176.03Z" fill="#FFFCF9"/>
<path d="M175.488 117.106V125.299L107.424 174.552V166.359L175.488 117.106Z" fill="#BAE5DC"/>
<path d="M175.488 96.407V99.2772L107.424 148.53V145.66L175.488 96.407Z" fill="#BAE5DC"/>
<path d="M175.488 74.2955V80.6793L107.424 129.932V123.549L175.488 74.2955Z" fill="#BAE5DC"/>
<path d="M175.488 63.3178V66.1832L107.424 115.441V112.571L175.488 63.3178Z" fill="#BAE5DC"/>
<path d="M156.764 166.516H126.147C123.116 166.516 120.659 164.058 120.659 161.028C120.659 157.997 123.116 155.54 126.147 155.54H156.764C159.795 155.54 162.252 157.997 162.252 161.028C162.252 164.058 159.796 166.516 156.764 166.516Z" fill="#0186CB"/>
<path d="M143.636 187.118C146.151 187.118 148.19 185.079 148.19 182.564C148.19 180.049 146.151 178.01 143.636 178.01C141.12 178.01 139.082 180.049 139.082 182.564C139.082 185.079 141.12 187.118 143.636 187.118Z" fill="#015287"/>
<path d="M163.794 107.975H119.12V144.951H163.794V107.975Z" fill="#FF6B3D"/>
<path d="M137.339 107.975L119.12 126.199V117.485L128.626 107.975H137.339Z" fill="#D65A33"/>
<path d="M155.314 107.975L119.12 144.164V135.45L146.6 107.975H155.314Z" fill="#D65A33"/>
<path d="M163.794 108.756V117.47L136.309 144.951H127.595L163.794 108.756Z" fill="#D65A33"/>
<path d="M163.794 126.726V135.44L154.284 144.951H145.57L163.794 126.726Z" fill="#D65A33"/>
<path d="M144.393 107.975H138.521V144.951H144.393V107.975Z" fill="#FFA822"/>
<path d="M142.204 104.607C142.204 104.607 148.551 93.7721 154.562 97.9539C155.394 98.5328 156.068 99.3379 156.397 100.296C158.269 105.743 148 107.974 142.204 107.974V106.541C142.204 106.541 149.6 105.854 152.106 103.416C153.299 102.256 152.091 100.245 150.503 100.737C147.188 101.762 142.204 106.102 142.204 106.102V104.607Z" fill="#FFA822"/>
<path d="M140.71 104.607C140.71 104.607 134.364 93.7721 128.352 97.9539C127.52 98.5328 126.846 99.3379 126.517 100.296C124.646 105.743 134.914 107.974 140.71 107.974V106.541C140.71 106.541 133.314 105.854 130.808 103.416C129.616 102.256 130.823 100.245 132.412 100.737C135.727 101.762 140.71 106.102 140.71 106.102V104.607Z" fill="#FFA822"/>
<path d="M143.585 106.811C144.826 110.929 148.157 114.358 152.236 115.719C151.416 115.898 150.409 116.067 149.589 116.246C149.618 116.92 149.816 117.735 149.845 118.41C145.764 116.184 142.588 111.956 142.128 107.331C142.597 107.213 143.116 106.928 143.585 106.811Z" fill="#FFC469"/>
<path d="M139.329 106.811C138.088 110.929 134.758 114.358 130.678 115.719C131.497 115.898 132.506 116.067 133.326 116.246C133.297 116.92 133.099 117.735 133.069 118.41C137.15 116.184 140.326 111.956 140.786 107.331C140.317 107.213 139.798 106.928 139.329 106.811Z" fill="#FFC469"/>
<path d="M144.393 103.852C144.393 102.448 138.521 102.448 138.521 103.852L139.498 107.975H143.416L144.393 103.852Z" fill="#FFC469"/>
<path d="M146.338 79.7768C145.919 78.7626 144.758 78.1134 143.675 78.2871C142.591 78.4608 141.536 79.4191 141.456 80.5134C141.376 79.4191 140.32 78.4608 139.237 78.2871C138.153 78.1129 136.993 78.7626 136.574 79.7768C136.079 80.9758 136.627 82.4073 137.573 83.2948C138.519 84.1823 140.159 84.9698 141.456 84.9698C142.753 84.9698 144.394 84.1818 145.34 83.2948C146.285 82.4073 146.833 80.9758 146.338 79.7768Z" fill="#5A6FD6"/>
<path d="M168.521 93.0855C168.612 91.771 167.71 90.4521 166.451 90.061C165.192 89.6699 163.545 90.1372 162.875 91.2717C163.372 90.0518 162.748 88.4573 161.676 87.6915C160.603 86.9258 159.007 87.0049 158.015 87.8725C156.842 88.8983 156.667 90.7311 157.211 92.1907C157.755 93.6503 159.099 95.3739 160.495 96.0663C161.891 96.7588 164.076 96.7869 165.567 96.3376C167.059 95.8873 168.413 94.6397 168.521 93.0855Z" fill="#5A6FD6"/>
<path d="M114.391 93.0855C114.299 91.771 115.202 90.4521 116.461 90.061C117.719 89.6699 119.366 90.1372 120.037 91.2717C119.539 90.0518 120.163 88.4573 121.236 87.6916C122.309 86.9258 123.904 87.0049 124.897 87.8726C126.069 88.8984 126.244 90.7311 125.7 92.1907C125.156 93.6503 123.812 95.3739 122.417 96.0664C121.021 96.7588 118.836 96.7869 117.344 96.3376C115.852 95.8873 114.498 94.6397 114.391 93.0855Z" fill="#5A6FD6"/>
<path d="M164.507 103.325C164.507 103.325 171.718 98.1218 172.413 98.9822C173.108 99.842 164.507 103.325 164.507 103.325Z" fill="#015287"/>
<path d="M164.372 87.2238C164.372 87.2238 169.501 79.9602 170.438 80.5478C171.375 81.1355 164.372 87.2238 164.372 87.2238Z" fill="#015287"/>
<path d="M151.564 86.2208C151.564 86.2208 161.963 69.2635 163.435 70.0977C164.908 70.9313 151.564 86.2208 151.564 86.2208Z" fill="#015287"/>
<path d="M118.404 103.325C118.404 103.325 111.193 98.1218 110.498 98.9822C109.803 99.842 118.404 103.325 118.404 103.325Z" fill="#015287"/>
<path d="M118.54 87.2238C118.54 87.2238 113.411 79.9602 112.474 80.5478C111.537 81.1355 118.54 87.2238 118.54 87.2238Z" fill="#015287"/>
<path d="M131.347 86.2208C131.347 86.2208 120.949 69.2635 119.476 70.0977C118.004 70.9313 131.347 86.2208 131.347 86.2208Z" fill="#015287"/>
<path d="M141.455 76.2132C141.455 76.2132 140.383 68.0126 141.274 68.0126C142.166 68.0126 141.455 76.2132 141.455 76.2132Z" fill="#015287"/>
<path d="M66.2347 126.763C64.3112 124.797 62.3881 122.831 60.4646 120.866C59.6577 120.041 58.8231 119.197 57.7652 118.736C56.7074 118.275 55.3594 118.286 54.5122 119.069C53.5936 119.918 53.6135 121.572 54.5515 122.399C55.4895 123.226 57.1325 123.039 57.8603 122.022C59.6412 123.738 61.1983 125.459 62.9792 127.175C64.0637 127.049 65.1497 126.888 66.2347 126.763Z" fill="#2B2B3B"/>
<path d="M93.2015 140.317L61.0547 131.109L28.9079 140.317C21.3158 146.132 15.7185 160.025 15.7185 178.01C15.7185 195.511 61.0547 194.462 61.0547 194.462C61.0547 194.462 106.391 195.511 106.391 178.01C106.391 160.025 100.794 146.132 93.2015 140.317Z" fill="#FF6B3D"/>
<path d="M89.3831 139.266L61.0552 131.109L32.7268 139.266C26.0362 144.418 21.1042 156.725 21.1042 172.658C21.1042 188.162 61.0552 187.233 61.0552 187.233C61.0552 187.233 101.006 188.162 101.006 172.658C101.006 156.725 96.0737 144.418 89.3831 139.266Z" fill="#FFA822"/>
<path d="M104.237 140.282C104.154 143.063 102.378 145.659 99.9519 147.022C97.5208 148.386 94.5414 148.589 91.8483 147.886C88.175 146.925 85.1277 144.445 81.8523 142.538C75.617 138.904 68.2656 137.429 61.0549 137.429C53.8442 137.429 46.4928 138.904 40.2574 142.538C36.982 144.445 33.9347 146.925 30.2614 147.886C27.5683 148.589 24.5889 148.386 22.1579 147.022C19.7317 145.659 17.9557 143.063 17.8732 140.282C17.8538 139.554 17.9557 138.826 18.174 138.128C18.7806 136.153 20.2703 134.449 22.2307 133.828C24.8849 132.989 28.1409 134.445 29.0337 137.084C37.87 129.65 49.5449 125.613 61.0549 125.982C72.5648 125.613 84.2397 129.65 93.0808 137.084C93.9688 134.445 97.2248 132.989 99.8791 133.828C101.839 134.449 103.329 136.153 103.941 138.128C104.154 138.826 104.256 139.554 104.237 140.282Z" fill="#14141C"/>
<path d="M103.94 138.128C103.324 140.18 101.834 141.976 99.9517 143.038C97.5206 144.402 94.5412 144.601 91.8481 143.897C88.1748 142.936 85.1275 140.462 81.8521 138.55C75.6168 134.92 68.2654 133.445 61.0547 133.445C53.844 133.445 46.4926 134.92 40.2572 138.55C36.9818 140.462 33.9345 142.936 30.2612 143.897C27.5681 144.601 24.5887 144.402 22.1577 143.038C20.2749 141.976 18.7852 140.18 18.1738 138.128C18.7804 136.153 20.2701 134.449 22.2305 133.828C24.8847 132.989 28.1407 134.445 29.0335 137.084C37.8698 129.65 49.5447 125.613 61.0547 125.982C72.5646 125.613 84.2395 129.65 93.0806 137.084C93.9686 134.445 97.2246 132.989 99.8789 133.828C101.839 134.449 103.329 136.153 103.94 138.128Z" fill="#2B2B3B"/>
<path d="M101.442 104.748C101.442 104.748 107.644 94.4767 97.9551 83.8688C97.9551 83.8688 92.2909 94.9498 101.442 104.748Z" fill="#FF6B3D"/>
<path d="M101.442 104.748C101.442 104.748 88.3704 106.542 85.5269 88.9537C85.5269 88.9537 97.1353 91.6851 101.442 104.748Z" fill="#FF6B3D"/>
<path d="M101.442 104.748C101.442 104.748 89.3188 105.42 92.057 84.9698C92.057 84.9698 104.824 93.5809 101.442 104.748Z" fill="#FFA822"/>
<path d="M151.371 44.4749C147.921 39.1004 141.292 37.0041 135.523 39.0596L135.333 38.7622L132.757 40.4154C126.496 44.4347 124.679 52.7687 128.698 59.0293C132.717 65.2904 141.051 67.1076 147.312 63.0883L149.888 61.4351L149.696 61.1377C153.967 56.7491 154.821 49.8495 151.371 44.4749Z" fill="#FFA822"/>
<path d="M148.366 41.1665C148.019 40.8934 147.662 40.6372 147.292 40.4018L126.694 53.6251C126.755 54.0589 126.838 54.4908 126.942 54.9203L148.366 41.1665Z" fill="#FFC469"/>
<path d="M151.683 44.9869C151.584 44.8151 151.479 44.6443 151.37 44.4749C150.799 43.585 150.139 42.7877 149.412 42.0817L127.338 56.2518C127.677 57.2072 128.126 58.1398 128.698 59.0298C128.806 59.1991 128.919 59.3636 129.034 59.5262L151.683 44.9869Z" fill="#FFC469"/>
<path d="M153.412 53.2641C153.536 52.1767 153.533 51.0718 153.388 49.9747L132.859 63.1529C133.796 63.7424 134.801 64.2025 135.842 64.5436L153.412 53.2641Z" fill="#FFC469"/>
<path d="M153.198 48.9066C153.076 48.3418 152.921 47.7804 152.724 47.2277L130.639 61.405C131.059 61.8141 131.502 62.1916 131.964 62.5376L153.198 48.9066Z" fill="#FFC469"/>
<path d="M155.634 53.5437C157.539 46.3515 153.252 38.977 146.06 37.0724C138.868 35.1677 131.493 39.4542 129.589 46.6464C127.684 53.8387 131.97 61.2131 139.163 63.1178C146.355 65.0224 153.729 60.736 155.634 53.5437Z" fill="#FFC469"/>
<path d="M149.879 58.6948C154.626 54.6796 155.219 47.5764 151.204 42.8294C147.189 38.0824 140.086 37.4892 135.339 41.5044C130.592 45.5196 129.999 52.6228 134.014 57.3698C138.029 62.1168 145.132 62.71 149.879 58.6948Z" fill="#FFA822"/>
<path d="M150.361 58.2611C149.859 58.7444 149.298 59.1846 148.691 59.5742C143.459 62.9326 136.497 61.4118 133.138 56.1799C129.78 50.9481 131.296 43.9844 136.527 40.626C137.134 40.2363 137.768 39.9098 138.416 39.6541C134.569 43.2982 133.728 49.2749 136.694 53.8969C139.661 58.5188 145.446 60.2424 150.361 58.2611Z" fill="#FF6B3D"/>
<path d="M140.615 42.6092L147.421 53.2117L144.998 54.7674L139.835 46.725L138.287 48.4457L136.364 46.7497L138.494 43.9708L140.615 42.6092Z" fill="white"/>
<path d="M75.6833 19.386L74.0592 25.1458C73.4274 27.3871 81.2485 31.5534 91.5284 34.4518C101.808 37.3501 110.654 37.8829 111.285 35.6421L112.91 29.8827L75.6833 19.386Z" fill="#FFA822"/>
<path d="M93.9304 24.531L91.1631 34.3465C91.2854 34.3814 91.4057 34.4173 91.529 34.4518C93.3942 34.9778 95.211 35.4247 96.9409 35.792L99.6606 26.1464L93.9304 24.531Z" fill="#FFC469"/>
<path d="M82.2507 21.2377L79.7561 30.0861C80.7785 30.5902 81.9067 31.0973 83.1358 31.5981L85.7765 22.2319L82.2507 21.2377Z" fill="#FFC469"/>
<path d="M86.8783 22.5425L84.2061 32.0207C85.3003 32.4443 86.4508 32.8616 87.6615 33.2644L90.4045 23.5363L86.8783 22.5425Z" fill="#FFC469"/>
<path d="M100.762 26.4569L98.0657 36.0206C99.4214 36.287 100.718 36.5034 101.928 36.665L104.509 27.5133L100.762 26.4569Z" fill="#FFC469"/>
<path d="M112.91 29.8823C112.278 32.1236 103.432 31.5908 93.1526 28.692C82.8728 25.7936 75.0517 21.6273 75.6834 19.386C76.3152 17.1451 85.1612 17.6779 95.441 20.5763C105.72 23.4746 113.542 27.6409 112.91 29.8823Z" fill="#FFC469"/>
<path d="M93.7116 26.7083C85.4154 24.3689 80.2801 21.6613 78.4133 20.1556C80.792 19.847 86.5853 20.2201 94.8815 22.5595C103.178 24.8988 108.313 27.6065 110.18 29.1122C107.802 29.4208 102.008 29.0476 93.7116 26.7083Z" fill="#FFA822"/>
<path d="M109.999 29.133C107.511 29.4024 101.803 28.9918 93.711 26.7102C85.6123 24.4267 80.5328 21.7884 78.5564 20.2677C82.8246 21.785 88.0332 23.4606 94.1419 25.1832C100.25 26.9053 105.567 28.197 109.999 29.133Z" fill="#FF6B3D"/>
<path d="M72.4385 60.848C68.8652 58.76 62.7905 58.743 56.7123 61.1745C50.6337 63.6066 46.2471 67.8088 45.1 71.7848L43.7593 72.321L45.2063 75.9385C47.1419 80.7764 55.4308 82.0094 63.7207 78.6932C72.0106 75.3766 77.1619 68.7666 75.2267 63.9288L73.7797 60.3113L72.4385 60.848Z" fill="#FFA822"/>
<path d="M60.3274 60.0153L67.1383 77.04C68.7303 76.1273 70.1477 75.0951 71.3438 73.9917L65.4758 59.3233C63.8488 59.3486 62.1102 59.5781 60.3274 60.0153Z" fill="#FFC469"/>
<path d="M46.6694 68.6118L51.3181 80.2314C53.391 80.6536 55.8124 80.6652 58.3827 80.2198L51.796 63.7555C49.6318 65.2045 47.8791 66.879 46.6694 68.6118Z" fill="#FFC469"/>
<path d="M56.7125 61.1745C55.7328 61.5666 54.803 62.0087 53.9175 62.4837L60.7958 79.6768C61.7638 79.4104 62.7421 79.0848 63.7208 78.6932C64.4341 78.4079 65.1212 78.0964 65.785 77.7654L58.8471 60.4224C58.1381 60.6408 57.4258 60.8892 56.7125 61.1745Z" fill="#FFC469"/>
<path d="M67.1389 59.3699L72.5164 72.8121C73.2869 71.9619 73.9338 71.0851 74.4307 70.2005L70.327 59.943C69.3574 59.6446 68.2836 59.4548 67.1389 59.3699Z" fill="#FFC469"/>
<path d="M62.2733 75.083C70.5635 71.7669 75.7154 65.1567 73.7801 60.3187C71.8449 55.4807 63.5556 54.2469 55.2653 57.563C46.975 60.8792 41.8232 67.4894 43.7584 72.3274C45.6936 77.1654 53.983 78.3991 62.2733 75.083Z" fill="#FFC469"/>
<path d="M61.3625 72.799C53.8587 75.8007 47.2628 74.4769 46.0366 71.4107C44.8099 68.3445 48.6725 62.8365 56.1762 59.8343C63.68 56.8326 70.2759 58.1568 71.5026 61.2226C72.7293 64.2883 68.8663 69.7968 61.3625 72.799Z" fill="#FFA822"/>
<path d="M71.5022 61.225C72.7264 64.2883 68.8644 69.7963 61.3596 72.798C53.8617 75.8017 47.2614 74.476 46.0371 71.4127C45.6902 70.5455 45.7499 69.4867 46.1832 68.3391C48.4566 70.5101 54.2339 71.1264 60.6856 68.5434C66.0636 66.3914 69.5792 62.9496 70.6753 60.0425C71.0514 60.3943 71.3309 60.7956 71.5022 61.225Z" fill="#FF6B3D"/>
<path d="M50.8118 66.2118L64.1079 61.0731L65.2822 64.1127L55.1959 68.0106L56.7521 70.1161L54.436 71.863L51.8385 68.8714L50.8118 66.2118Z" fill="white"/>
</svg>
