<svg width="202" height="202" viewBox="0 0 202 202" fill="none" xmlns="http://www.w3.org/2000/svg">
<mask id="mask0_38_1684" style="mask-type:alpha" maskUnits="userSpaceOnUse" x="0" y="0" width="202" height="202">
<circle cx="101" cy="101" r="101" fill="#C4E1C7"/>
</mask>
<g mask="url(#mask0_38_1684)">
<circle cx="101" cy="101" r="101" fill="#C4E1C7"/>
<path d="M76.0981 196.472H145.59C147.718 196.472 149.491 194.839 149.665 192.717L161.445 48.4729H60.2427L72.0228 192.717C72.1964 194.839 73.9692 196.472 76.0981 196.472Z" fill="#2D701C"/>
<path d="M59.8613 57.491H161.826C166.486 57.491 170.264 53.7127 170.264 49.0508V47.8934C170.264 43.2332 166.486 39.4549 161.826 39.4549H59.8613C55.2011 39.4549 51.4229 43.2332 51.4229 47.8934V49.0526C51.4229 53.7128 55.2011 57.491 59.8613 57.491Z" fill="#45683E"/>
<path d="M71.4824 196.472H140.974C143.103 196.472 144.876 194.839 145.049 192.717L156.829 48.4729H55.627L67.4072 192.717C67.5807 194.839 69.3535 196.472 71.4824 196.472Z" fill="#559C43"/>
<path d="M55.2457 57.491H157.208C161.868 57.491 165.648 53.7127 165.648 49.0508V47.8934C165.648 43.2332 161.87 39.4549 157.208 39.4549H55.2439C50.5837 39.4549 46.8054 43.2332 46.8054 47.8934V49.0526C46.8054 53.7128 50.5837 57.491 55.2457 57.491Z" fill="#559C43"/>
<path d="M96.3807 107.626C96.7564 107.626 97.1231 107.445 97.345 107.109L103.73 97.4756C104.236 96.71 105.17 96.252 106.227 96.252C107.283 96.252 108.216 96.71 108.723 97.4756C109.075 98.0051 109.792 98.1501 110.326 97.8012C110.857 97.4488 111.004 96.7314 110.651 96.1983C109.714 94.7851 108.061 93.9407 106.227 93.9407C104.393 93.9407 102.74 94.7851 101.803 96.1983L95.4183 105.832C95.0659 106.363 95.2108 107.08 95.7439 107.435C95.9389 107.563 96.1625 107.626 96.3807 107.626Z" fill="#FCAD4F"/>
<path d="M118.997 122.483C120.991 122.483 122.77 121.478 123.637 119.862C124.394 118.455 124.312 116.811 123.421 115.465L117.038 105.832C116.685 105.299 115.972 105.154 115.435 105.506C114.904 105.859 114.757 106.576 115.109 107.109L121.492 116.743C122.066 117.608 121.807 118.383 121.6 118.768C121.134 119.633 120.138 120.17 118.995 120.17C118.356 120.17 117.839 120.687 117.839 121.326C117.839 121.964 118.358 122.483 118.997 122.483Z" fill="#FCAD4F"/>
<path d="M93.4593 122.483H106.227C106.866 122.483 107.383 121.966 107.383 121.328C107.383 120.689 106.866 120.172 106.227 120.172H93.4593C92.3179 120.172 91.3197 119.635 90.8546 118.769C90.647 118.387 90.3876 117.61 90.9619 116.744C91.3143 116.211 91.1694 115.496 90.6363 115.141C90.1032 114.793 89.384 114.934 89.0334 115.467C88.1425 116.812 88.0602 118.456 88.8169 119.864C89.6846 121.478 91.4646 122.483 93.4593 122.483Z" fill="#FCAD4F"/>
<path d="M112.161 121.632C112.397 121.496 112.397 121.156 112.161 121.02L109.177 119.297L106.193 117.574C105.957 117.438 105.663 117.608 105.663 117.88V121.326V124.771C105.663 125.043 105.957 125.213 106.193 125.077L109.177 123.354L112.161 121.632Z" fill="#FCAD4F"/>
<path d="M113.259 100.887C113.023 100.751 112.73 100.923 112.73 101.195L112.739 104.64L112.748 108.086C112.748 108.358 113.043 108.526 113.279 108.39L116.258 106.658L119.236 104.927C119.471 104.791 119.471 104.451 119.235 104.315L116.245 102.601L113.259 100.887Z" fill="#FCAD4F"/>
<path d="M92.6703 110.572C92.6381 110.843 92.9101 111.047 93.1587 110.939L96.3287 109.589L99.4988 108.238C99.7492 108.132 99.7903 107.794 99.5721 107.631L96.8171 105.562L94.0622 103.492C93.8457 103.329 93.5326 103.461 93.5004 103.732L93.0854 107.152L92.6703 110.572Z" fill="#FCAD4F"/>
<path d="M158.516 58.017H85.5075C85.2607 58.017 85.0603 57.8166 85.0603 57.5697C85.0603 57.3229 85.2607 57.1225 85.5075 57.1225H158.518C158.765 57.1225 158.965 57.3229 158.965 57.5697C158.965 57.8166 158.763 58.017 158.516 58.017Z" fill="#2D386B"/>
<path d="M174.357 177.806C174.357 182.554 178.205 186.404 182.955 186.404C187.703 186.404 191.551 182.554 191.551 177.806C191.551 173.058 187.703 169.209 182.955 169.209C178.205 169.21 174.357 173.058 174.357 177.806Z" fill="#C1907A"/>
<path d="M38.7483 105.361C38.7483 105.361 45.5052 80.7902 75.2427 63.6307C78.3949 61.8113 84.4289 112.519 84.4289 112.519L38.7483 105.361Z" fill="#FCAD4F"/>
<path d="M110.159 60.6217C110.159 60.6217 140.368 71.2086 151.021 101.476C161.672 131.743 147.257 140.128 147.257 140.128L108.159 118.449L105.641 67.9349L110.159 60.6217Z" fill="#FCAD4F"/>
<path d="M112.991 181.844H87.5058L87.1624 126.219H115.959L112.991 181.844Z" fill="#E25A50"/>
<path d="M98.3163 126.226L87.1623 194.531C87.1623 194.531 78.4197 203.2 58.6322 201.801C44.1472 200.771 19.3166 197.587 8.40231 187.094C4.42728 183.284 2.29129 178.481 3.21259 172.443C3.76537 168.89 5.67956 165.523 8.55081 162.357C23.7908 145.423 65.5912 134.398 65.5912 134.398L98.3163 126.226Z" fill="#E25A50"/>
<path d="M193.274 187.352C181.034 197.64 154.253 200.789 139.877 201.801C120.092 203.2 117.716 192.672 117.716 192.672L104.372 126.228L137.097 134.399C137.097 134.399 175.64 144.559 192.206 160.352C196.125 164.089 198.814 168.137 199.476 172.445C200.415 178.61 197.875 183.488 193.274 187.352Z" fill="#E25A50"/>
<path d="M130.401 132.183C130.401 132.183 125.188 65.6021 110.159 60.6217C93.7261 55.1761 73.3304 60.7111 68.5127 70.1907C63.6951 79.6703 68.5127 133.233 68.5127 133.233C68.5127 133.233 102.973 138.448 130.401 132.183Z" fill="#FCAD4F"/>
<path d="M62.8667 194.023C62.8667 194.023 75.4072 203.111 75.7327 204.281C76.0583 205.451 81.0459 229.457 84.6631 232.342C88.2804 235.226 91.6329 233.306 91.6329 233.306C91.6329 233.306 99.7529 179.731 99.0266 177.787C98.3002 175.842 75.502 171.321 75.502 171.321L62.8667 194.023Z" fill="#D87D68"/>
<path d="M89.717 233.879L95.6761 176.159L103.462 177.364L97.0786 228.594C96.6457 232.07 93.4095 234.487 89.955 233.916L89.717 233.879Z" fill="#D87D68"/>
<path d="M140.257 193.508C140.257 193.508 127.716 202.596 127.391 203.766C127.063 204.936 122.077 228.941 118.46 231.827C114.843 234.711 111.49 232.791 111.49 232.791C111.49 232.791 103.37 179.216 104.097 177.271C104.823 175.327 127.621 170.806 127.621 170.806L140.257 193.508Z" fill="#D87D68"/>
<path d="M113.406 233.364L107.447 175.643L99.6619 176.849L106.045 228.081C106.478 231.557 109.714 233.974 113.168 233.403L113.406 233.364Z" fill="#D87D68"/>
<path d="M108.161 166.506L127.39 203.766L154.307 193.198L143.063 166.506H108.161Z" fill="#E25A50"/>
<path d="M95.7478 168.3L74.7081 205.562L49.8633 194.993L61.1068 168.3H95.7478Z" fill="#E25A50"/>
<path d="M149.831 159.387C149.665 159.387 149.511 159.294 149.432 159.144C149.343 158.969 149.378 158.756 149.518 158.62C150.323 157.835 157.375 151.054 160.472 151.054C160.518 151.054 160.566 151.056 160.611 151.058C161.071 151.09 161.448 151.283 161.702 151.614C162.448 152.58 162.355 153.427 162.148 153.965C160.842 157.344 151.022 159.182 149.908 159.38C149.883 159.386 149.856 159.387 149.831 159.387ZM160.45 151.947C158.486 151.947 153.883 155.793 151.273 158.194C154.733 157.43 160.498 155.752 161.312 153.641C161.497 153.162 161.393 152.677 160.992 152.158C160.931 152.078 160.817 151.97 160.547 151.951C160.516 151.949 160.484 151.947 160.45 151.947Z" fill="#FCAD4F"/>
<path d="M113.372 165.978C113.177 165.978 112.997 165.849 112.941 165.65C112.875 165.411 113.015 165.166 113.252 165.098C113.483 165.035 136.566 158.686 167.962 156.797C168.196 156.797 168.418 156.972 168.436 157.217C168.45 157.464 168.261 157.675 168.016 157.691C136.723 159.572 113.723 165.896 113.494 165.96C113.453 165.972 113.412 165.978 113.372 165.978Z" fill="#FCAD4F"/>
<path d="M91.635 168.747C91.5849 168.747 91.533 168.738 91.4829 168.72C91.2307 168.627 65.9548 159.573 34.6805 157.693C34.4336 157.677 34.2457 157.466 34.26 157.219C34.2761 156.972 34.4819 156.799 34.7341 156.799C66.1462 158.688 91.5366 167.788 91.7889 167.878C92.0214 167.964 92.1413 168.218 92.0572 168.45C91.991 168.633 91.8193 168.747 91.635 168.747Z" fill="#FCAD4F"/>
<path d="M52.8113 159.47C51.6145 159.248 41.8218 157.271 40.5624 153.876C40.362 153.334 40.2815 152.487 41.04 151.53C41.3012 151.203 41.6787 151.017 42.1385 150.99C42.176 150.988 42.2118 150.988 42.2511 150.988C45.3335 150.988 52.3319 157.906 53.1279 158.704C53.2675 158.844 53.2996 159.056 53.2066 159.23C53.1279 159.382 52.9741 159.47 52.8113 159.47ZM42.269 151.883C41.9202 151.901 41.8057 152.008 41.7431 152.087C41.3352 152.6 41.2243 153.083 41.4032 153.564C42.1885 155.686 47.9292 157.443 51.3801 158.255C48.7915 155.811 44.219 151.883 42.269 151.883Z" fill="#FCAD4F"/>
<path d="M101.193 50.2333L102.079 61.2782C102.079 61.2782 100.342 64.6128 93.9228 65.6575C89.1409 66.4357 87.4182 64.0851 87.4182 64.0851L87.8082 54.3264L99.27 50.8237L101.193 50.2333Z" fill="#D87D68"/>
<path d="M101.123 49.5606C101.12 49.8647 101.034 50.2297 100.887 50.6519C98.8586 56.3676 90.3451 59.3623 87.5847 59.8345L87.8083 54.3264L101.123 49.5606Z" fill="black"/>
<path d="M83.3271 29.3474C83.3271 29.3474 78.6418 43.6607 81.5435 51.1707C84.4451 58.6807 91.3612 56.7915 95.4257 54.897C99.4901 53.0007 101.195 50.2333 101.195 50.2333C101.195 50.2333 105.252 51.1886 107.531 47.2815C109.809 43.3745 107.789 39.3332 105.453 38.5872C103.116 37.8412 100.603 39.7161 100.603 39.7161L102.311 35.5228C102.311 35.5264 91.5669 16.0806 83.3271 29.3474Z" fill="#D87D68"/>
<path d="M85.5883 46.7538C85.4148 46.7538 85.2502 46.6518 85.1768 46.4819C83.9657 43.6357 85.7314 40.4352 85.8083 40.3011C85.9282 40.0846 86.2002 40.0112 86.4166 40.1293C86.6313 40.2492 86.7082 40.5229 86.5883 40.7376C86.5722 40.768 84.9657 43.6947 86.0033 46.133C86.0999 46.3602 85.9926 46.6214 85.7654 46.7198C85.7082 46.7413 85.6491 46.7538 85.5883 46.7538Z" fill="black"/>
<path d="M101.803 46.108C101.707 46.108 101.614 46.0775 101.531 46.0149C101.336 45.8647 101.299 45.5838 101.449 45.387L104.773 41.0524C104.921 40.8556 105.202 40.8162 105.399 40.9701C105.594 41.1204 105.632 41.4013 105.481 41.598L102.158 45.9327C102.07 46.0489 101.938 46.108 101.803 46.108Z" fill="black"/>
<path d="M105.64 44.6446C105.619 44.6446 103 44.5194 103 44.5194C102.751 44.5069 102.563 44.2976 102.574 44.0507C102.587 43.8038 102.809 43.6303 103.043 43.6249L105.662 43.7502C105.911 43.7627 106.098 43.972 106.088 44.2189C106.077 44.4568 105.878 44.6446 105.64 44.6446Z" fill="black"/>
<path d="M81.7602 35.7911C81.5652 35.7911 81.3863 35.6641 81.3308 35.4655C81.2629 35.2276 81.4006 34.979 81.6385 34.9128L84.0322 34.2312C84.2683 34.1614 84.5169 34.3009 84.5849 34.5388C84.6529 34.7768 84.5152 35.0255 84.2772 35.0917L81.8836 35.7732C81.8425 35.7875 81.7995 35.7911 81.7602 35.7911Z" fill="black"/>
<path d="M92.0606 36.3224C92.0087 36.3224 91.9533 36.3135 91.9014 36.292L88.7171 35.0791C88.4863 34.9914 88.37 34.7339 88.4577 34.5031C88.5453 34.2723 88.8029 34.1543 89.0337 34.2437L92.218 35.4566C92.4488 35.5442 92.5651 35.8019 92.4774 36.0326C92.4094 36.2133 92.2395 36.3224 92.0606 36.3224Z" fill="black"/>
<path d="M82.3555 41.4245C82.0264 41.3691 81.8707 41.1347 81.9173 40.8914L82.5505 37.6391C82.5971 37.3976 82.8171 37.2366 83.0747 37.2867C83.318 37.3332 83.4754 37.5675 83.4271 37.8108L82.7938 41.0631C82.7509 41.276 82.5648 41.4245 82.3555 41.4245Z" fill="black"/>
<path d="M90.2127 41.7734C89.8835 41.7179 89.7261 41.4836 89.7744 41.2403L90.3773 38.1526C90.4238 37.9111 90.6439 37.7555 90.9015 37.8002C91.1448 37.8467 91.3022 38.081 91.2539 38.3243L90.651 41.4102C90.6098 41.6249 90.4238 41.7734 90.2127 41.7734Z" fill="black"/>
<path d="M85.6615 49.8576C85.5846 49.8576 85.5094 49.838 85.4379 49.7986L82.9692 48.3799C82.7563 48.2583 82.6829 47.9828 82.8046 47.7681C82.9262 47.5517 83.1999 47.4837 83.4164 47.6035L85.8851 49.0222C86.098 49.1438 86.1713 49.4193 86.0497 49.634C85.9674 49.7771 85.8153 49.8576 85.6615 49.8576Z" fill="black"/>
<path d="M91.9443 66.1352C88.0623 66.1352 86.2537 64.3373 86.166 64.2461C85.9925 64.069 85.9961 63.7881 86.1732 63.6146C86.3467 63.441 86.6311 63.4446 86.8029 63.6181C86.8261 63.6414 89.2269 65.9724 94.4417 64.9956C101.265 63.7237 102.946 59.8685 102.962 59.8274C103.057 59.5984 103.326 59.4928 103.546 59.5858C103.775 59.6807 103.884 59.9383 103.791 60.1673C103.719 60.3444 101.946 64.5055 94.6062 65.874C93.6295 66.0583 92.7422 66.1352 91.9443 66.1352Z" fill="white"/>
<path d="M35.8877 113.793C35.8877 113.793 29.7356 111.814 28.2204 121.031C26.7051 130.247 36.3976 121.947 36.3976 121.947L35.8877 113.793Z" fill="#D87D68"/>
<path d="M141.487 113.793C141.487 113.793 147.639 111.814 149.155 121.031C150.67 130.247 140.977 121.947 140.977 121.947L141.487 113.793Z" fill="#D87D68"/>
<path d="M135.503 136.621C135.503 136.621 132.537 149.477 143.087 149.756C153.636 150.033 155.173 135.052 155.173 135.052L135.503 136.621Z" fill="#D87D68"/>
<path d="M41.8718 136.621C41.8718 136.621 44.8379 149.477 34.2885 149.756C23.7391 150.033 22.2024 135.052 22.2024 135.052L41.8718 136.621Z" fill="#D87D68"/>
<path d="M100.588 39.7358C100.588 39.7358 100.794 33.8716 95.8404 32.6891C90.8868 31.5066 77.9922 30.6372 77.4072 25.1344C76.8222 19.6316 86.0084 22.4402 86.0084 22.4402C86.0084 22.4402 83.9207 17.0233 89.1802 17.0001C94.4397 16.9768 96.8011 21.3544 96.8011 21.3544C96.8011 21.3544 100.942 20.6048 104.009 22.7032C107.075 24.8016 106.562 30.2257 106.562 30.2257C106.562 30.2257 110.334 31.7517 110.211 35.0541C110.088 38.3547 108.066 41.3279 108.066 41.3279C108.066 41.3279 105.565 36.6463 100.588 39.7358Z" fill="black"/>
<path d="M138.4 149.904H39.5712C36.8843 149.904 34.7053 147.725 34.7053 145.038V84.869C34.7053 82.182 36.8843 80.003 39.5712 80.003H138.4C141.087 80.003 143.265 82.182 143.265 84.869V145.038C143.265 147.725 141.088 149.904 138.4 149.904Z" fill="white"/>
<path d="M24.723 130.696C24.723 130.696 15.4689 130.983 17.6567 126.387C19.8446 121.791 36.0184 117.383 38.4925 122.041C40.9649 126.7 24.723 130.696 24.723 130.696Z" fill="#D87D68"/>
<path d="M26.8073 138.069C26.8073 138.069 17.5531 138.355 19.741 133.759C21.9288 129.163 38.1027 124.755 40.5768 129.414C43.0491 134.072 26.8073 138.069 26.8073 138.069Z" fill="#D87D68"/>
<path d="M32.9899 143.587C31.1294 144.521 29.065 145.033 26.9881 144.886C25.1329 144.756 23.4298 144.081 24.0381 141.913C25.2528 137.575 38.6913 131.294 41.55 134.983C43.6825 137.732 36.6877 141.732 32.9899 143.587Z" fill="#D87D68"/>
<path d="M23.428 129.777C23.224 129.777 23.038 129.636 22.9915 129.428C22.9378 129.186 23.0899 128.947 23.3314 128.893L33.7878 126.557C34.0346 126.503 34.2689 126.655 34.3226 126.895C34.3763 127.136 34.2242 127.376 33.9845 127.43L23.5281 129.766C23.4924 129.773 23.4602 129.777 23.428 129.777Z" fill="black"/>
<path d="M26.3545 137.847C26.1506 137.847 25.9645 137.705 25.918 137.498C25.8643 137.256 26.0164 137.017 26.2561 136.963L36.7125 134.627C36.9611 134.573 37.1937 134.725 37.2474 134.965C37.3011 135.206 37.149 135.446 36.9075 135.5L26.4511 137.836C26.4189 137.843 26.3867 137.847 26.3545 137.847Z" fill="black"/>
<path d="M152.652 130.696C152.652 130.696 161.906 130.983 159.718 126.387C157.531 121.791 141.357 117.383 138.883 122.041C136.41 126.7 152.652 130.696 152.652 130.696Z" fill="#D87D68"/>
<path d="M150.568 138.069C150.568 138.069 159.822 138.355 157.634 133.759C155.447 129.163 139.273 124.755 136.799 129.414C134.326 134.072 150.568 138.069 150.568 138.069Z" fill="#D87D68"/>
<path d="M144.385 143.587C146.246 144.521 148.31 145.033 150.387 144.886C152.242 144.756 153.945 144.081 153.337 141.913C152.123 137.575 138.684 131.294 135.825 134.983C133.693 137.732 140.688 141.732 144.385 143.587Z" fill="#D87D68"/>
<path d="M153.947 129.777C153.917 129.777 153.883 129.773 153.849 129.766L143.392 127.43C143.151 127.376 142.999 127.136 143.054 126.895C143.108 126.653 143.339 126.501 143.589 126.557L154.045 128.893C154.287 128.947 154.439 129.186 154.384 129.428C154.337 129.635 154.153 129.777 153.947 129.777Z" fill="black"/>
<path d="M151.021 137.847C150.988 137.847 150.956 137.843 150.922 137.836L140.468 135.5C140.226 135.446 140.074 135.206 140.128 134.965C140.181 134.723 140.41 134.571 140.663 134.627L151.117 136.963C151.359 137.017 151.511 137.256 151.457 137.498C151.409 137.705 151.225 137.847 151.021 137.847Z" fill="black"/>
<path d="M193.273 187.352C190.071 183.1 185.985 177.357 185.708 175.645C185.248 172.81 192.205 160.35 192.205 160.35C196.125 164.087 198.814 168.135 199.476 172.443C200.415 178.61 197.874 183.488 193.273 187.352Z" fill="#559C43"/>
<path d="M14.7177 177.046C14.478 178.536 11.3115 183.119 8.40451 187.096C4.42948 183.286 2.29348 178.483 3.21479 172.445C3.76757 168.892 5.6817 165.525 8.55295 162.359C9.93223 164.86 15.122 174.579 14.7177 177.046Z" fill="#559C43"/>
<path d="M11.7657 176.091C11.6852 176.091 11.6046 176.069 11.5313 176.025C11.3202 175.896 11.2558 175.618 11.3846 175.409L14.3578 170.572C14.4848 170.361 14.7621 170.295 14.9732 170.425C15.1843 170.554 15.2487 170.831 15.1199 171.041L12.1467 175.878C12.0626 176.016 11.9159 176.091 11.7657 176.091Z" fill="#2D386B"/>
<path d="M11.7659 181.069C11.6586 181.069 11.553 181.032 11.4671 180.957C11.2847 180.792 11.2686 180.509 11.4332 180.323L15.8805 175.347C16.0468 175.164 16.3295 175.148 16.512 175.311C16.6962 175.475 16.7105 175.758 16.5477 175.942L12.1004 180.919C12.0092 181.017 11.8876 181.069 11.7659 181.069Z" fill="#2D386B"/>
<path d="M189.309 176.019C189.159 176.019 189.012 175.944 188.928 175.806L185.955 170.971C185.826 170.761 185.891 170.486 186.102 170.355C186.314 170.227 186.588 170.291 186.717 170.502L189.69 175.338C189.819 175.547 189.755 175.824 189.543 175.953C189.47 175.999 189.39 176.019 189.309 176.019Z" fill="#2D386B"/>
<path d="M189.309 180.998C189.188 180.998 189.064 180.948 188.976 180.849L184.529 175.871C184.365 175.685 184.381 175.402 184.565 175.237C184.747 175.071 185.03 175.089 185.196 175.273L189.644 180.252C189.808 180.436 189.792 180.721 189.608 180.883C189.522 180.962 189.415 180.998 189.309 180.998Z" fill="#2D386B"/>
</g>
</svg>
