<svg width="202" height="202" viewBox="0 0 202 202" fill="none" xmlns="http://www.w3.org/2000/svg">
<mask id="mask0_38_1293" style="mask-type:alpha" maskUnits="userSpaceOnUse" x="0" y="0" width="202" height="202">
<circle cx="101" cy="101" r="101" fill="#C4E1C7"/>
</mask>
<g mask="url(#mask0_38_1293)">
<circle cx="101" cy="101" r="101" fill="#C4E1C7"/>
<path d="M102.456 69.4424C102.178 69.4424 101.944 69.2235 101.929 68.9436C101.542 61.4267 95.7997 60.189 95.7429 60.1764C95.4587 60.1196 95.2735 59.8417 95.3303 59.5575C95.3872 59.2692 95.6671 59.0902 95.9492 59.145C96.0144 59.1576 102.552 60.5658 102.98 68.8909C102.994 69.1814 102.771 69.4277 102.481 69.4446C102.472 69.4424 102.464 69.4424 102.456 69.4424Z" fill="black"/>
<path d="M123.566 83.2362C123.566 83.2362 121.501 75.4984 123.566 72.7346C125.631 69.9708 129.475 60.1196 132.134 59.6586C134.792 59.1976 133.091 67.1901 133.091 67.1901C133.091 67.1901 134.577 86.4295 130.456 88.2566C126.332 90.0858 123.566 83.2362 123.566 83.2362Z" fill="#F48C6C"/>
<path d="M97.2882 114.606C97.2882 114.606 106.607 107.742 112.532 101.109C120.914 91.7255 124.162 81.6196 124.162 81.6196L139.966 79.8241C139.966 79.8241 143.128 105.507 133.584 124.327C123.88 143.457 108.417 143.308 97.9765 129.377C90.0555 118.804 97.2882 114.606 97.2882 114.606Z" fill="#F48C6C"/>
<path d="M108.726 97.9478L109.265 100.091C110.629 100.091 121.756 81.0071 121.756 81.0071L146.06 90.3763C146.06 90.3763 140.838 135.199 117.367 140.241C95.6589 144.905 80.4863 127.217 80.4863 127.217L108.726 97.9478Z" fill="#6E69E2"/>
<path d="M67.1766 36.8745C67.1766 36.8745 57.9274 36.8597 54.6795 41.5517C51.4315 46.2437 53.1934 50.8472 53.1934 50.8472C53.1934 50.8472 51.7915 50.5799 51.0695 51.5713C50.3475 52.5607 51.0695 54.0952 51.0695 54.0952C51.0695 54.0952 48.5119 54.8151 46.7227 59.1934C44.9335 63.5696 46.7227 67.1922 46.7227 67.1922C46.7227 67.1922 44.3925 65.2178 43.3085 67.1922C42.2265 69.1667 43.3085 70.9812 43.3085 70.9812C43.3085 70.9812 39.8206 70.1265 38.8565 74.7911C37.8924 79.4536 41.3824 81.8007 41.3824 81.8007C41.3824 81.8007 36.3916 84.8676 38.8565 89.0186C41.3235 93.1695 88.4451 86.4926 88.4451 86.4926C88.4451 86.4926 97.0292 82.3564 98.5027 77.3866C99.9782 72.4167 95.8441 67.9037 95.8441 67.9037C95.8441 67.9037 97.667 65.4893 95.8441 63.6285C94.0212 61.7678 90.0302 63.6285 90.0302 63.6285L67.1766 36.8745Z" fill="black"/>
<path d="M74.5673 61.5614L73.6348 73.8544C73.6348 73.8544 75.584 77.5549 82.7303 78.6853C88.0537 79.5273 90.0282 78.458 90.0282 78.458L89.7525 72.1768L89.4767 66.0492L76.708 62.2077L74.5673 61.5614Z" fill="#F48C6C"/>
<path d="M76.71 62.2077C76.7163 62.5466 76.8131 62.9507 76.9773 63.4201C79.2633 69.7687 86.6812 71.6632 89.7544 72.1747L89.4786 66.0471L76.71 62.2077Z" fill="black"/>
<path d="M94.341 38.2385C94.341 38.2385 99.6245 54.1394 96.4313 62.5087C93.2401 70.878 85.536 68.811 81.0061 66.7228C76.4741 64.6347 74.5649 61.5636 74.5649 61.5636C74.5649 61.5636 70.0561 62.6476 67.5007 58.3114C64.9474 53.9773 67.1744 49.4706 69.7698 48.6286C72.3652 47.7866 75.1712 49.8621 75.1712 49.8621L73.2493 45.2059C73.2493 45.2059 85.1066 23.5185 94.341 38.2385Z" fill="#F48C6C"/>
<path d="M74.2513 56.499C74.1313 56.499 74.0113 56.4569 73.9124 56.3748L68.6774 51.9734C68.4542 51.786 68.4248 51.4555 68.6121 51.2303C68.7974 51.0093 69.1299 50.9798 69.3531 51.1672L74.5881 55.5686C74.8112 55.756 74.8407 56.0886 74.6533 56.3096C74.5502 56.4359 74.4007 56.499 74.2513 56.499Z" fill="black"/>
<path d="M69.2081 56.0486C68.9576 56.0486 68.7366 55.8696 68.6903 55.6149C68.6398 55.3287 68.8292 55.055 69.1155 55.0045L72.835 54.3415C73.1128 54.2825 73.3949 54.4804 73.4454 54.7666C73.4959 55.0529 73.3065 55.3266 73.0202 55.3771L69.3007 56.0402C69.2713 56.0486 69.2397 56.0486 69.2081 56.0486Z" fill="black"/>
<path d="M92.6025 55.8402C92.4615 55.8402 92.3184 55.7833 92.2131 55.6697C92.0174 55.455 92.0321 55.1224 92.2468 54.9245C94.2486 53.0911 91.5164 49.3422 91.489 49.3022C91.3185 49.0706 91.3648 48.738 91.6006 48.5654C91.8342 48.3928 92.1626 48.4413 92.3352 48.677C92.472 48.8601 95.6589 53.2279 92.9583 55.7012C92.8572 55.7939 92.7288 55.8402 92.6025 55.8402Z" fill="black"/>
<path d="M95.8459 43.6546C95.7722 43.6546 95.6986 43.6398 95.627 43.6083L93.1368 42.4653C92.8737 42.3432 92.758 42.0317 92.8779 41.7664C93 41.5012 93.3094 41.3875 93.5768 41.5075L96.067 42.6505C96.3322 42.7726 96.4458 43.0841 96.3258 43.3494C96.2353 43.5409 96.0459 43.6546 95.8459 43.6546Z" fill="black"/>
<path d="M85.1949 44.8144C85.0307 44.8144 84.875 44.7239 84.7992 44.566C84.6939 44.3471 84.7887 44.084 85.0055 43.9808L89.0849 42.0337C89.3038 41.9327 89.5669 42.0211 89.6701 42.2421C89.7753 42.4589 89.6806 42.7221 89.4638 42.8273L85.3844 44.7744C85.3212 44.8018 85.2581 44.8144 85.1949 44.8144Z" fill="black"/>
<path d="M112.469 243.118C112.361 247.189 112.252 251.218 112.1 255.203C110.757 292.431 107.682 324.703 106.838 326.673C105.884 328.86 52.0669 328.254 52.0669 328.254L78.6631 146.092L97.7656 142.973C97.7656 142.973 107.749 173.358 111.303 211.626C112.252 221.698 112.728 232.354 112.469 243.118Z" fill="#FCAD4F"/>
<path d="M88.9691 239.045C87.5609 244.091 61.5078 316.297 53.8837 332.325L49.2064 325.307L46.7163 330.441L38.4206 316.731L24.6247 323.229L19.6002 317.923H10.2226L8.12183 306.379C16.3733 284.851 35.7579 238.115 35.7579 238.115C35.7579 238.115 33.2677 227.157 31.7079 195.862C30.1271 164.568 41.7128 142.975 41.7128 142.975L86.1527 146.095C86.1527 146.095 90.5289 233.415 88.9691 239.045Z" fill="#FCAD4F"/>
<path d="M106.127 122.21C106.127 122.21 104.135 128.023 104.045 129.274C103.954 130.524 101.348 144.764 100.227 147.198C99.1172 149.616 89.8575 156.171 71.5212 153.578C53.1975 150.986 41.5023 147.932 38.9216 144.608C36.3389 141.285 44.2283 84.7434 49.3159 79.4663C54.4036 74.1891 66.9113 74.789 66.9113 74.789C66.9113 74.789 66.1977 71.6021 68.7889 70.5349C71.3801 69.4677 79.821 74.1617 84.4898 74.8143C89.1439 75.4647 91.1268 74.0418 92.9854 74.5006C94.8315 74.9469 95.1535 79.0495 95.1535 79.0495C95.1535 79.0495 101.262 83.5751 105.617 97.0658C109.956 110.559 106.127 122.21 106.127 122.21Z" fill="#6E69E2"/>
<path d="M95.1514 79.0495C95.1514 79.0495 105.253 86.6589 108.726 97.9478C112.199 109.235 105.805 123.169 105.805 123.169L96.1744 93.2306L95.1514 79.0495Z" fill="#6E69E2"/>
<path d="M87.2643 49.7673C87.018 49.7673 86.797 49.5926 86.7486 49.3422L86.1929 46.4647C86.1676 46.332 86.1929 46.1973 86.2645 46.0837L87.1317 44.6944C87.2875 44.4502 87.6137 44.3786 87.8558 44.5281C88.1021 44.6818 88.1779 45.0059 88.0242 45.2543L87.2664 46.4668L87.7842 49.1401C87.839 49.4264 87.6516 49.7042 87.3675 49.7568C87.3296 49.7653 87.298 49.7673 87.2643 49.7673Z" fill="black"/>
<path d="M95.0821 49.8137C94.8358 49.8137 94.6148 49.639 94.5664 49.3885L94.0107 46.511C93.9875 46.3931 94.0065 46.2732 94.0612 46.1679L94.9705 44.4271C95.1052 44.1682 95.4252 44.0693 95.6799 44.204C95.9388 44.3366 96.0377 44.6565 95.903 44.9133L95.08 46.492L95.602 49.1885C95.6568 49.4748 95.4694 49.7526 95.1852 49.8053C95.1494 49.8116 95.1179 49.8137 95.0821 49.8137Z" fill="black"/>
<path d="M75.171 49.8621L78.2316 54.0952L77.4022 48.6623C77.4022 48.6623 86.5462 46.0458 89.6637 41.0823C92.7811 36.1188 92.1201 35.4116 92.1201 35.4116L94.343 38.2385C94.343 38.2385 97.6646 28.8693 83.0351 26.6949C68.4057 24.5205 67.1785 36.8745 67.1785 36.8745C67.1785 36.8745 62.5223 38.1838 62.7075 44.6039C62.8907 51.024 66.4628 53.2364 66.4628 53.2364C66.4628 53.2364 68.6393 46.7404 75.171 49.8621Z" fill="black"/>
<path d="M60.0114 325.837C59.944 325.837 59.8788 325.824 59.8135 325.799C59.5441 325.69 59.4157 325.382 59.5251 325.113C59.7546 324.551 82.4524 268.772 84.1237 251.551C88.0073 211.559 79.6885 175.943 79.6065 175.587C79.5559 175.372 79.6443 175.147 79.8296 175.025L93.1898 166.277C93.4276 166.121 93.7581 166.184 93.9181 166.428C94.078 166.671 94.0086 166.999 93.7665 167.157L80.7136 175.705C81.5809 179.57 88.8641 213.643 85.1741 251.652C83.4859 269.024 60.7313 324.947 60.5018 325.511C60.4155 325.713 60.2198 325.837 60.0114 325.837Z" fill="#2D386B"/>
<path d="M41.3826 171.099C41.1574 171.099 40.949 170.954 40.8795 170.727C40.7932 170.449 40.949 170.154 41.2268 170.068C41.6226 169.946 50.8865 166.957 51.5348 156.005C51.5517 155.714 51.7979 155.506 52.0905 155.51C52.381 155.529 52.602 155.777 52.5852 156.068C51.8927 167.767 41.6394 171.043 41.5342 171.076C41.4857 171.091 41.4352 171.099 41.3826 171.099Z" fill="#2D386B"/>
<path d="M49.3145 79.4662C49.3145 79.4662 22.6425 99.4507 26.945 123.167C31.2497 146.884 85.2272 143.158 85.2272 143.158L85.5976 123.401L54.3053 111.958L49.3145 79.4662Z" fill="#FF9583"/>
<path d="M75.9627 77.9107C72.1864 77.8139 66.9114 75.37 66.6883 75.2647C66.4251 75.1406 66.3115 74.829 66.4336 74.5659C66.5577 74.3028 66.8735 74.1891 67.1345 74.3112C67.1871 74.3365 72.4348 76.7677 75.9774 76.8582C76.2679 76.8666 76.4974 77.1066 76.4911 77.3992C76.4826 77.6854 76.2469 77.9107 75.9627 77.9107Z" fill="#FCAD4F"/>
<path d="M72.7271 139.763C72.7271 139.763 92.7432 148.418 94.8292 153.281C96.9152 158.143 99.557 156.043 99.0307 151.113C98.5045 146.183 98.5045 146.183 98.5045 146.183C98.5045 146.183 101.283 157.061 103.653 150.782C106.026 144.503 102.112 140.874 102.112 140.874C102.112 140.874 104.794 146.993 106.766 143.777C108.741 140.559 104.363 124.595 85.5948 123.401C66.8269 122.208 64.2168 131.722 64.2168 131.722L72.7271 139.763Z" fill="#F48C6C"/>
<path d="M98.5047 148.439C98.3173 148.439 98.1363 148.338 98.0416 148.164C98.0079 148.103 94.6484 141.939 90.4216 139.091C90.1796 138.929 90.1164 138.603 90.2785 138.361C90.4427 138.121 90.771 138.06 91.0089 138.22C95.4525 141.211 98.8267 147.4 98.9678 147.661C99.1046 147.917 99.0098 148.235 98.753 148.374C98.6752 148.418 98.5889 148.439 98.5047 148.439Z" fill="black"/>
<path d="M104.131 144.263C103.948 144.263 103.769 144.166 103.673 143.994C103.633 143.922 99.5974 136.763 95.3664 133.915C95.1244 133.753 95.0612 133.425 95.2233 133.185C95.3875 132.945 95.7159 132.88 95.9537 133.044C100.395 136.033 104.42 143.177 104.59 143.48C104.731 143.733 104.641 144.053 104.388 144.196C104.308 144.242 104.22 144.263 104.131 144.263Z" fill="black"/>
<path d="M133.02 96.2554C131.839 96.0702 131.031 94.9608 131.218 93.78L143.724 14.2651C143.909 13.0842 145.018 12.2759 146.199 12.4632C147.38 12.6485 148.188 13.7578 148.001 14.9387L135.495 94.4536C135.31 95.6344 134.203 96.4428 133.02 96.2554Z" fill="#D6B3A5"/>
<path d="M176.106 62.7171L102.309 51.1103C100.635 50.8472 99.49 49.2769 99.7552 47.6034L105.104 13.5915C105.367 11.9181 106.937 10.773 108.611 11.0382L182.409 22.6449C184.082 22.9081 185.227 24.4784 184.962 26.1518L179.613 60.1638C179.352 61.8351 177.782 62.9802 176.106 62.7171Z" fill="#E8E8E8"/>
<path d="M142.488 80.2303C142.488 80.2303 150.424 84.6297 146.277 87.4019C142.13 90.1742 126.303 85.7769 126.558 80.6135C126.812 75.45 142.488 80.2303 142.488 80.2303Z" fill="#F48C6C"/>
<path d="M144.431 72.9788C144.431 72.9788 152.366 77.3781 148.22 80.1504C144.073 82.9226 128.246 78.5253 128.5 73.3619C128.751 68.2005 144.431 72.9788 144.431 72.9788Z" fill="#F48C6C"/>
<path d="M141.896 65.2241C143.963 65.3693 145.995 65.9629 147.696 67.148C149.192 68.1879 150.287 69.6087 148.689 71.1306C145.492 74.1722 131.028 72.724 130.471 68.1857C130.058 64.8262 137.823 64.9399 141.896 65.2241Z" fill="#F48C6C"/>
<path d="M144.431 73.505C144.338 73.4966 132.999 71.499 132.999 71.499C132.713 71.4505 132.521 71.1769 132.572 70.8906C132.622 70.6001 132.898 70.4086 133.18 70.4633L144.519 72.4609C144.806 72.5093 144.997 72.783 144.947 73.0693C144.902 73.3261 144.681 73.505 144.431 73.505Z" fill="black"/>
<path d="M143.473 80.5671C143.38 80.5587 132.041 78.5611 132.041 78.5611C131.754 78.5127 131.563 78.239 131.613 77.9528C131.664 77.6623 131.944 77.4707 132.222 77.5254L143.561 79.5231C143.847 79.5715 144.039 79.8451 143.988 80.1314C143.944 80.3882 143.723 80.5671 143.473 80.5671Z" fill="black"/>
<path d="M91.0195 60.1848C90.9374 60.1785 87.1527 59.5786 87.1527 59.5786C86.9674 59.547 86.8095 59.4228 86.7443 59.246C86.6769 59.0692 86.7085 58.8713 86.8285 58.7261C86.9906 58.524 88.4598 56.7895 89.8912 57.1684C91.3794 57.5599 91.5415 59.5365 91.5478 59.6207C91.5583 59.7806 91.4973 59.9385 91.3773 60.0459C91.2763 60.1364 91.15 60.1848 91.0195 60.1848ZM88.3462 58.7029L90.3417 59.0165C90.2175 58.6629 89.9986 58.2819 89.6218 58.1851C89.2555 58.082 88.7651 58.3661 88.3462 58.7029Z" fill="black"/>
<path d="M55.5029 76.0878C55.5029 76.0878 30.6749 82.6258 25.261 111.42C19.847 140.213 51.0846 144.305 60.0117 145.387C68.9368 146.469 78.6638 146.103 78.6638 146.103L85.7112 120.481L61.4768 108.689L55.5029 76.0878Z" fill="#6E69E2"/>
<path d="M110.551 110.096C110.101 110.096 109.697 109.906 109.377 109.544C107.718 107.662 108.634 100.794 108.745 100.017C108.779 99.7833 108.964 99.6002 109.2 99.5686C109.438 99.5412 109.661 99.6696 109.751 99.8865C110.286 101.164 112.894 107.643 111.673 109.502C111.423 109.883 111.044 110.087 110.574 110.093C110.566 110.096 110.56 110.096 110.551 110.096ZM109.558 102.305C109.356 104.917 109.389 107.967 110.168 108.849C110.322 109.022 110.467 109.039 110.56 109.043C110.692 109.041 110.745 108.999 110.793 108.925C111.326 108.113 110.528 105.027 109.558 102.305Z" fill="#FCAD4F"/>
<path d="M84.0961 121.61C84.0435 121.61 83.9909 121.601 83.9361 121.584C83.7172 121.515 61.8088 114.564 46.752 110.643C46.4699 110.569 46.3015 110.281 46.3752 109.999C46.4489 109.719 46.7331 109.555 47.0172 109.622C62.1014 113.552 84.0372 120.511 84.2561 120.58C84.5339 120.669 84.6855 120.966 84.5992 121.241C84.5276 121.467 84.3192 121.61 84.0961 121.61Z" fill="#FCAD4F"/>
<path d="M60.0114 114.299C59.9482 114.299 59.883 114.286 59.824 114.263C58.2222 113.649 50.2149 110.447 49.7729 107.78C49.7076 107.384 49.7602 106.805 50.3833 106.286C50.8885 105.865 51.4989 105.702 52.1978 105.801C55.5531 106.279 60.2492 113.186 60.4471 113.478C60.5755 113.668 60.5671 113.92 60.4239 114.099C60.3208 114.23 60.1692 114.299 60.0114 114.299ZM51.8105 106.827C51.5179 106.827 51.2737 106.915 51.0569 107.098C50.8001 107.313 50.7895 107.477 50.8106 107.61C51.0379 108.978 55.1426 111.152 58.5126 112.596C56.795 110.34 53.9659 107.115 52.0504 106.845C51.9662 106.831 51.8862 106.827 51.8105 106.827Z" fill="#FCAD4F"/>
<path d="M66.0905 102.297C65.9727 102.297 65.8548 102.259 65.7558 102.177L58.4369 96.1628C58.2117 95.9776 58.1801 95.6471 58.3632 95.4198C58.5506 95.1966 58.881 95.1651 59.1042 95.3482L66.4231 101.362C66.6484 101.547 66.6799 101.878 66.4968 102.105C66.3936 102.231 66.2421 102.297 66.0905 102.297Z" fill="white"/>
<path d="M68.7783 100.493C68.652 100.493 68.5257 100.448 68.4268 100.358L61.7625 94.3441C61.5457 94.1483 61.5288 93.8157 61.7246 93.5989C61.9182 93.3842 62.2508 93.3695 62.4676 93.5611L69.1319 99.5749C69.3487 99.7707 69.3656 100.103 69.1698 100.32C69.0646 100.436 68.9214 100.493 68.7783 100.493Z" fill="white"/>
<path d="M58.1421 97.4847C57.9084 97.4847 57.6958 97.3289 57.6327 97.0932C57.559 96.8111 57.7253 96.5227 58.0074 96.449L66.6987 94.1631C66.9766 94.102 67.2671 94.2578 67.3408 94.5398C67.4144 94.8219 67.2481 95.1103 66.9661 95.184L58.2747 97.4699C58.2305 97.4784 58.1863 97.4847 58.1421 97.4847Z" fill="white"/>
<path d="M60.0851 100.975C59.8535 100.975 59.6409 100.821 59.5778 100.585C59.502 100.305 59.6662 100.017 59.9482 99.9391L70.1615 97.1711C70.4457 97.0974 70.732 97.2616 70.8077 97.5415C70.8835 97.8215 70.7172 98.112 70.4373 98.1878L60.2261 100.956C60.1777 100.968 60.1314 100.975 60.0851 100.975Z" fill="white"/>
<path d="M110.72 134.553C110.49 134.553 110.282 134.404 110.215 134.172C110.135 133.892 110.295 133.602 110.575 133.522L119.676 130.895C119.95 130.81 120.247 130.975 120.329 131.255C120.409 131.535 120.249 131.825 119.969 131.907L110.867 134.534C110.819 134.547 110.768 134.553 110.72 134.553Z" fill="white"/>
<path d="M110.686 137.79C110.448 137.79 110.231 137.628 110.175 137.388C110.107 137.104 110.282 136.82 110.564 136.753L119.295 134.665C119.58 134.593 119.862 134.774 119.929 135.054C119.996 135.338 119.822 135.622 119.54 135.69L110.808 137.778C110.768 137.786 110.726 137.79 110.686 137.79Z" fill="white"/>
<path d="M116.151 139.184C116.092 139.184 116.031 139.173 115.972 139.152C115.698 139.053 115.557 138.755 115.654 138.481L118.689 130.019C118.786 129.745 119.089 129.604 119.363 129.701C119.637 129.8 119.778 130.101 119.681 130.373L116.645 138.835C116.57 139.049 116.368 139.184 116.151 139.184Z" fill="white"/>
<path d="M111.709 140.337C111.652 140.337 111.593 140.327 111.536 140.308C111.263 140.211 111.117 139.912 111.214 139.637L114.715 129.651C114.809 129.377 115.108 129.238 115.384 129.329C115.658 129.425 115.803 129.724 115.706 130L112.206 139.986C112.13 140.201 111.928 140.337 111.709 140.337Z" fill="white"/>
<path d="M45.2344 56.499C45.165 56.499 45.0955 56.4864 45.0282 56.4569C44.7608 56.3412 44.6345 56.0338 44.7503 55.7665C47.6615 48.9085 53.2733 50.3252 53.328 50.3399C53.608 50.4136 53.7743 50.702 53.7006 50.9819C53.6269 51.264 53.3406 51.4218 53.0586 51.3587C52.867 51.3061 48.2635 50.1884 45.7186 56.1791C45.6323 56.3812 45.4386 56.499 45.2344 56.499Z" fill="black"/>
</g>
</svg>
